<svg width="740" height="842" viewBox="0 0 740 842" fill="none" xmlns="http://www.w3.org/2000/svg">
<g clip-path="url(#clip0_2_69)">
<path d="M93.6 172.73C139.17 146.52 184.7 120.22 230.44 94.31C233.28 92.7 237.82 94.1 242.67 94.1C234.85 113.92 227.06 132.64 220.08 151.65C211.38 175.36 205.56 199.95 199.84 224.51C198.95 228.34 198.43 230.95 194.42 233.17C172.31 245.41 150.54 258.25 128.58 270.77C110.51 281.08 101.82 298.04 101.62 317.34C100.74 398.91 100.77 480.5 101.52 562.07C101.76 588.24 118 603.89 140.1 617.34C186.65 645.67 222.53 622.09 251.07 590.9C270.6 569.56 285.58 544.32 293.97 516.01C297.34 504.64 300.63 493.18 302.83 481.55C303.82 476.31 306.24 474.42 310.62 473.41C350.53 464.27 390.43 464.44 430.4 473.16C438.19 474.86 438.36 481.61 439.09 486.59C445.6 531.33 467.17 568.26 497.86 600.24C514.09 617.15 534.41 628.58 557.73 630.91C568.34 631.97 580.04 628.04 590.04 621.77C603.74 613.18 619.86 608.37 628.75 592.81C634.8 582.21 638.88 571.58 638.87 559.33C638.81 481.96 638.62 404.58 638.96 327.21C639.08 298.72 628.08 278.06 602.08 264.98C584.24 256 567.42 244.99 550 235.15C543.11 231.26 540.91 225.41 539.5 217.96C531.8 177.28 516.34 139.1 501.02 100.89C500.41 99.37 500.16 97.72 499.53 95.34C513.01 90.43 521.36 101.07 530.36 106.04C572.47 129.26 613.77 153.94 655.51 177.82C700.89 203.78 728.89 241.58 737.63 293.71C739.59 305.41 739.71 316.88 739.73 328.47C739.88 405.42 739.62 482.38 739.87 559.33C740.03 609.37 720.87 650.9 683.73 683.42C664.1 700.6 639.74 711.41 617.28 724.68C581.85 745.6 546.69 767.11 510.32 786.27C478.37 803.1 449.99 826.91 414.17 836.3C412.13 836.83 408.99 837.75 411.69 841.15H328.4C331.1 837.75 327.96 836.91 325.92 836.29C285.94 824.11 253.31 798 217.09 778.71C185.44 761.85 154.6 743.43 123.88 724.89C94.49 707.15 61.7 693.98 39.13 666.54C20.19 643.5 7.04999 617.68 2.6 587.53C-1.78 557.86 0.749995 528.18 0.449995 498.53C-0.130005 439.66 0.649995 380.79 0.159995 321.92C-0.240005 273.37 18.31 233.28 52.44 199.79C62.92 189.5 76.43 183.35 88.49 175.22C90.46 174.95 92.5 174.79 93.59 172.72L93.6 172.73ZM126.06 638.86C126.42 633.65 121.73 633.28 118.75 631.46C91.65 614.98 78.58 590.84 78.6 559.25C78.67 478.95 78.32 398.64 78.78 318.34C78.95 288.55 91.9 265.05 118.12 249.75C135.89 239.38 153.76 229.2 171.57 218.92C174.78 217.06 178.62 215.83 179.31 211.35C182.94 187.69 192.34 165.53 197.35 142.22C197.73 141.74 198.1 141.26 198.48 140.77C197.99 141.14 197.5 141.51 197.02 141.88C195.06 142.54 192.93 142.89 191.18 143.9C155.18 164.65 118.52 184.38 83.43 206.59C44.47 231.25 24.52 269.01 23.7 314.38C22.19 398.05 22.15 481.78 23.7 565.44C24.59 613.34 46.1 652.17 88.17 676.96C160.15 719.37 232.3 761.52 305.14 802.42C347.74 826.34 392.5 826.17 435.06 802.4C506.91 762.27 577.98 720.74 648.98 679.13C693.6 652.99 715.96 612.61 716.56 561.47C717.51 480.31 717.66 399.12 716.5 317.97C715.78 267.43 693.31 227.78 649.15 201.57C634.34 192.78 619.43 184.17 604.51 175.6C584.65 164.19 564.73 152.89 544.89 141.58C541.42 146.86 544.61 150.12 545.54 153.54C550.29 170.9 555.98 188.04 559.82 205.59C561.37 212.66 564.47 216.68 570.21 219.95C587.73 229.91 605.27 239.85 622.59 250.14C648.2 265.36 661.09 288.58 661.27 317.87C661.76 399.46 661.46 481.05 661.39 562.64C661.39 567.22 660.93 571.85 660.19 576.38C653.52 617.39 615.69 640.38 575.94 651.68C567.6 654.05 558.93 654.64 549.83 653.18C514.92 647.56 489.27 627.56 467.42 601.6C440.99 570.2 424.5 533.83 415.78 493.64C385.06 486.83 354.89 486.65 324.33 493.77C323.08 498.84 322.06 503.72 320.66 508.49C305.41 560.18 280.18 605.34 234.29 636.08C209.49 652.69 182.39 658.87 152.92 649.24C145.85 646.93 140.01 640.96 131.81 642.05C130.65 639.61 128.34 639.25 126.05 638.85L126.06 638.86Z" fill="#92D8E9"/>
<path d="M202.81 505.15C186.04 465.23 179.22 424.99 187.23 382.97C188.61 375.73 190.8 367.33 195.59 362.29C213.82 343.11 210.67 319.21 212.29 296.28C218.1 213.86 238.19 136.22 288.46 68.71C307.2 43.54 329.88 22.6 356.03 5.12C366.12 -1.62 373.85 -1.75 384.13 4.99C430.92 35.62 463.79 77.76 487.24 127.72C512.64 181.82 524.98 239.16 527.84 298.69C528.47 311.69 529.39 324.68 530.01 337.68C530.16 340.77 530.94 343.3 533.07 345.6C559.2 373.84 558.06 408.44 554.48 442.97C552.29 464.04 547.13 484.77 537.16 504.11C438.19 418.94 286.64 430.56 202.82 505.16L202.81 505.15ZM372.54 287.97C393.31 288.12 413.65 285.27 433.04 277.67C469.73 263.29 490.08 230.25 486.88 191.07C482.51 137.49 446.32 97 392.44 85.42C343.5 74.9 291.18 99.31 267.33 145.17C243.85 190.32 246.72 258.32 319.1 280.1C336.47 285.33 354.32 288.02 372.53 287.97H372.54Z" fill="#0D85FC"/>
<path d="M169.44 591.26C160.68 580.63 152.74 585.41 143.42 592.5C145.53 586 146.96 581.58 148.4 577.14C146.83 572.76 139.33 574.23 139.38 566.89C148.38 567.47 155.2 563.94 157.56 553.24C159.18 564.74 165.27 568.46 178.66 564.51C169.96 573.51 163.29 580.35 169.42 591.25L169.44 591.26Z" fill="#C8D2D5"/>
<path d="M166.88 84.59C167.82 93.8 161.04 96.07 154.53 96.34C145.79 96.7 141.55 91.07 141.64 82.36C141.73 73.63 146.97 71.27 154.74 71.3C163.89 71.34 167.35 76.04 166.88 84.59Z" fill="#FEFEFE"/>
<path d="M93.6 172.73C92.51 174.81 90.48 174.96 88.5 175.23C83.23 169.43 79.11 175.31 73.69 176.83C75.16 170.02 75.72 163.44 65.37 159.22C74.13 156.61 83.22 157.88 81.94 146.74C85.65 154.06 89.46 159.83 98.18 157.25C99.89 163.91 84.21 164.39 93.6 172.71V172.73Z" fill="#FEFEFE"/>
<path d="M197.37 142.23C192.35 165.53 182.96 187.69 179.32 211.35C178.63 215.84 174.79 217.07 171.58 218.92C153.77 229.2 135.9 239.39 118.13 249.75C91.9 265.05 78.96 288.56 78.79 318.34C78.32 398.64 78.67 478.94 78.61 559.25C78.58 590.84 91.66 614.98 118.76 631.46C121.74 633.27 126.43 633.65 126.07 638.86C111.1 633.49 98.37 638.43 94.19 651.23C90.19 663.49 96.48 676.61 108.68 680.81C119.08 684.39 127.76 681.17 134.44 672.82C141.66 663.78 140.64 653.77 131.84 642.06C140.04 640.97 145.88 646.94 152.95 649.25C182.43 658.88 209.52 652.7 234.32 636.09C280.21 605.35 305.45 560.2 320.69 508.5C322.1 503.73 323.11 498.84 324.36 493.78C354.92 486.66 385.09 486.84 415.81 493.65C424.54 533.83 441.03 570.21 467.45 601.61C489.3 627.57 514.95 647.58 549.86 653.19C558.96 654.65 567.63 654.06 575.97 651.69C615.72 640.39 653.55 617.4 660.22 576.39C660.96 571.86 661.41 567.23 661.42 562.65C661.49 481.06 661.79 399.47 661.3 317.88C661.12 288.58 648.24 265.37 622.62 250.15C605.3 239.86 587.76 229.92 570.24 219.96C564.5 216.69 561.4 212.68 559.85 205.6C556.01 188.05 550.32 170.91 545.57 153.55C544.63 150.13 541.44 146.87 544.92 141.59C564.75 152.9 584.68 164.2 604.54 175.61C619.47 184.19 634.38 192.8 649.18 201.58C693.34 227.79 715.81 267.43 716.53 317.98C717.69 399.13 717.54 480.32 716.59 561.48C715.99 612.62 693.63 653 649.01 679.14C578 720.75 506.93 762.28 435.09 802.41C392.53 826.18 347.77 826.35 305.17 802.43C232.33 761.52 160.18 719.38 88.2 676.97C46.13 652.18 24.62 613.35 23.73 565.45C22.18 481.79 22.22 398.05 23.73 314.39C24.55 269.02 44.49 231.26 83.46 206.6C118.55 184.39 155.2 164.66 191.21 143.91C192.96 142.9 195.09 142.55 197.05 141.89L197.39 142.23H197.37ZM86.03 247.94C91.54 245.25 97.23 244.97 105.93 249.44C99.21 239.48 106.38 236.17 110.66 229.83C100.91 232.57 97.12 227.75 93.61 217.24C92.49 229.8 86.66 231.15 77.25 230.87C85.79 235.83 87.04 241.61 86.21 248.14C85.81 248.45 85.4 248.76 85 249.07C85.24 249.03 85.61 249.07 85.71 248.92C85.9 248.65 85.93 248.27 86.02 247.94H86.03ZM193.24 727.11C208.25 711.34 222.27 712.22 238.21 726.02C225.27 705.77 236.35 695.51 252.26 685.8C231.31 689.92 219.02 683.15 214.82 660.46C214.45 687.61 196.96 686.9 178.47 686.36C197.13 695.18 205.41 706.64 193.24 727.11ZM387.49 694.08C386.75 694.96 386 695.84 385.26 696.72C406.93 703.51 407.62 717.38 396.83 736.57C407.22 730.18 413.5 724.18 420.81 722.4C428.48 720.53 433.1 731.32 443.95 732.34C432.39 713.97 440.58 703.17 457.56 694.63C438.09 696.8 424.53 692.03 422.54 670.07C415.76 678.25 417.55 688.79 410.57 691.83C403.83 694.76 395.26 693.51 387.5 694.1L387.49 694.08ZM424.98 585.88C407.9 601.98 394.83 594.67 381.48 581.11C391.14 602.8 380.57 613.1 362.3 620.79C383.48 618.65 394.13 627.55 395.2 649.32C399.97 628.21 412.45 622.25 432.6 626.39C415.55 615.4 413.61 602.76 424.99 585.88H424.98ZM76.27 357.23C76.06 344.42 65.46 333.99 52.92 334.26C40.31 334.53 30.2 345.22 30.4 358.07C30.59 370.81 41.34 381.41 53.77 381.11C66.43 380.8 76.48 370.14 76.28 357.23H76.27ZM710.12 324.55C710.12 311.79 699.59 301.11 687.19 301.3C674.53 301.49 663.98 312.19 664.12 324.7C664.26 337.24 674.92 347.94 687.4 348.04C699.9 348.15 710.13 337.58 710.13 324.54L710.12 324.55ZM297.06 728.22C309.85 728.39 320.47 718.26 320.68 705.69C320.89 693.19 310.31 682.35 297.77 682.23C285.16 682.1 274.24 692.61 274.12 705.01C273.99 717.94 283.98 728.04 297.06 728.22ZM351.48 564.02C364.87 563.85 374.26 554.23 374.03 540.9C373.81 528.02 363.47 517.9 350.73 518.1C338.06 518.3 328.04 528.76 328.17 541.65C328.31 554.89 338 564.19 351.47 564.02H351.48ZM402.25 777.37C402.05 763.94 392.56 754.75 379.06 754.93C366.35 755.09 356.04 765.62 356.27 778.21C356.5 790.79 367.1 800.93 379.89 800.81C392.97 800.69 402.44 790.77 402.24 777.37H402.25ZM549.61 710.31C562.47 710.53 572.95 700.6 573.24 687.92C573.53 675.25 563.42 664.77 550.6 664.45C537.63 664.12 527.54 673.89 527.33 686.97C527.12 700.46 536.3 710.08 549.61 710.31ZM655.25 615.53C652.41 626.63 647.92 633.36 635.78 632.79C645.51 637.03 646.53 643.55 641 653.22C650.83 649.17 658.09 646.91 667.34 653.19C664.1 643.01 667.31 637.26 677.26 631.22C662.55 633.52 658.08 626.72 655.25 615.53ZM696.45 515.04C694.06 507.78 696.42 502.97 704.07 496.96C692.48 499.5 690.09 493.16 686.81 484.23C684.98 494.7 681.04 498.8 672.64 498.36C680.8 502.25 678.19 509.07 677.76 517.3C684.47 510.42 690.04 510.33 696.45 515.04ZM576.39 193.17C584 197 582.47 203.64 581.76 211.81C588.58 205.26 594.33 206.97 601.56 209.9C594.35 201.63 602.51 198.21 605.89 192.04C597.04 194.22 593.63 189.5 590.95 179.13C588.82 190.26 584.36 193.64 576.39 193.17ZM47.85 467.79C46.03 475.6 40.03 477.25 32.18 479.05C41.06 482.79 39.57 488.86 38.42 496.47C44.36 491.61 49.48 489.88 56.73 493.36C53.77 485.43 59.12 482.48 63.34 476.92C54.17 478.72 50.58 474.74 47.85 467.79Z" fill="#02CBFE"/>
<path d="M131.82 642.07C140.63 653.78 141.64 663.79 134.42 672.83C127.75 681.18 119.07 684.4 108.66 680.82C96.46 676.62 90.17 663.5 94.17 651.24C98.35 638.45 111.08 633.51 126.05 638.87C128.34 639.27 130.65 639.63 131.81 642.07H131.82Z" fill="#C8D2D5"/>
<path d="M197.03 141.89C197.52 141.52 198.01 141.15 198.49 140.78C198.11 141.26 197.74 141.74 197.36 142.23L197.02 141.89H197.03Z" fill="#02CBFE"/>
<path d="M372.53 287.95C354.32 288.01 336.48 285.32 319.11 280.1C246.73 258.32 243.86 190.32 267.34 145.17C291.19 99.31 343.51 74.9 392.45 85.42C446.33 97 482.51 137.48 486.89 191.07C490.09 230.25 469.74 263.3 433.05 277.67C413.66 285.27 393.32 288.11 372.54 287.96L372.53 287.95ZM285.39 139.39C282.64 138.53 282.57 140.12 282.93 142.1L283.02 141.98C278.6 143.95 276.26 147.02 277.73 152.08L277.78 152C274.16 152.33 273.56 154.18 275.21 157.14L275.27 157.05C269.45 160.47 269.18 166.52 268.12 172.18C266.88 184.8 263.26 197.29 265.92 210.13C270.6 243.23 292.66 260.44 322.08 269.89C348.1 278.25 375.18 278.92 401.92 274.86C435.22 269.8 463.26 256.12 473.41 220.31C480.09 196.73 475.86 173.66 465.64 152.22C446.27 111.6 400.48 87.65 356.04 94.69C328.5 99.05 303.84 109.61 288.05 134.61L288.16 134.47C285.49 135.14 283.73 136.33 285.35 139.43L285.39 139.38V139.39Z" fill="#4A233E"/>
<path d="M193.23 727.11C205.4 706.64 197.12 695.18 178.46 686.36C196.95 686.89 214.44 687.6 214.81 660.46C219.01 683.15 231.3 689.92 252.25 685.8C236.35 695.52 225.26 705.78 238.2 726.02C222.26 712.22 208.24 711.34 193.23 727.11Z" fill="#C8D2D5"/>
<path d="M387.49 694.09C395.25 693.5 403.82 694.75 410.56 691.82C417.54 688.79 415.74 678.24 422.53 670.06C424.52 692.03 438.08 696.8 457.55 694.62C440.57 703.16 432.38 713.97 443.94 732.33C433.09 731.31 428.47 720.52 420.8 722.39C413.49 724.17 407.21 730.17 396.82 736.56C407.6 717.37 406.92 703.5 385.25 696.71C385.99 695.83 386.74 694.95 387.48 694.07L387.49 694.09Z" fill="#C8D2D5"/>
<path d="M424.98 585.88C413.61 602.76 415.54 615.4 432.59 626.39C412.44 622.25 399.96 628.21 395.19 649.32C394.12 627.55 383.48 618.65 362.29 620.79C380.56 613.1 391.13 602.8 381.47 581.11C394.83 594.66 407.89 601.97 424.97 585.88H424.98Z" fill="#C8D2D5"/>
<path d="M76.27 357.23C76.48 370.14 66.43 380.8 53.76 381.11C41.33 381.41 30.58 370.81 30.39 358.07C30.2 345.21 40.3 334.53 52.91 334.26C65.45 333.99 76.06 344.42 76.26 357.23H76.27Z" fill="#C8D2D5"/>
<path d="M710.12 324.55C710.12 337.58 699.89 348.15 687.39 348.05C674.92 347.94 664.25 337.25 664.11 324.71C663.97 312.2 674.52 301.5 687.18 301.31C699.58 301.12 710.11 311.8 710.11 324.56L710.12 324.55Z" fill="#C8D2D5"/>
<path d="M297.06 728.22C283.98 728.05 273.98 717.94 274.12 705.01C274.25 692.61 285.16 682.1 297.77 682.23C310.32 682.36 320.9 693.19 320.68 705.69C320.47 718.26 309.85 728.39 297.06 728.22Z" fill="#C8D2D5"/>
<path d="M351.47 564.02C337.99 564.19 328.3 554.88 328.17 541.65C328.04 528.76 338.06 518.3 350.73 518.1C363.47 517.9 373.81 528.02 374.03 540.9C374.25 554.23 364.86 563.86 351.48 564.02H351.47Z" fill="#C8D2D5"/>
<path d="M402.25 777.37C402.45 790.76 392.98 800.69 379.9 800.81C367.1 800.93 356.51 790.79 356.28 778.21C356.05 765.63 366.36 755.1 379.07 754.93C392.57 754.76 402.06 763.94 402.26 777.37H402.25Z" fill="#C8D2D5"/>
<path d="M549.6 710.32C536.29 710.09 527.1 700.47 527.32 686.98C527.53 673.9 537.62 664.13 550.59 664.46C563.42 664.79 573.52 675.26 573.23 687.93C572.94 700.6 562.46 710.54 549.6 710.32Z" fill="#C8D2D5"/>
<path d="M655.24 615.53C658.07 626.72 662.54 633.52 677.25 631.22C667.3 637.26 664.09 643.02 667.33 653.19C658.07 646.91 650.82 649.17 640.99 653.22C646.52 643.55 645.5 637.03 635.77 632.79C647.92 633.36 652.41 626.63 655.24 615.53Z" fill="#C8D2D5"/>
<path d="M86.22 248.14C87.04 241.61 85.8 235.83 77.26 230.87C86.67 231.15 92.5 229.8 93.62 217.24C97.13 227.76 100.92 232.57 110.67 229.83C106.39 236.17 99.21 239.48 105.94 249.44C97.24 244.97 91.55 245.25 86.04 247.94L86.23 248.14H86.22Z" fill="#C8D2D5"/>
<path d="M696.44 515.04C690.03 510.33 684.46 510.42 677.75 517.3C678.18 509.07 680.79 502.25 672.63 498.36C681.03 498.8 684.97 494.7 686.8 484.23C690.08 493.16 692.46 499.5 704.06 496.96C696.42 502.97 694.05 507.78 696.44 515.04Z" fill="#C8D2D5"/>
<path d="M576.39 193.17C584.37 193.65 588.83 190.26 590.95 179.13C593.62 189.5 597.03 194.22 605.89 192.04C602.51 198.2 594.35 201.63 601.56 209.9C594.33 206.97 588.58 205.26 581.76 211.81C582.47 203.64 584 197 576.39 193.17Z" fill="#C8D2D5"/>
<path d="M47.85 467.79C50.58 474.74 54.18 478.72 63.34 476.92C59.12 482.47 53.76 485.42 56.73 493.36C49.48 489.88 44.36 491.61 38.42 496.47C39.57 488.87 41.05 482.79 32.18 479.05C40.03 477.25 46.03 475.6 47.85 467.79Z" fill="#C8D2D5"/>
<path d="M86.03 247.94C85.93 248.27 85.9 248.65 85.72 248.92C85.62 249.06 85.26 249.03 85.01 249.07C85.41 248.76 85.82 248.45 86.22 248.14L86.03 247.94Z" fill="#C8D2D5"/>
<path d="M288.05 134.62C303.84 109.62 328.5 99.06 356.04 94.7C400.48 87.66 446.27 111.61 465.64 152.23C475.86 173.67 480.09 196.73 473.41 220.32C463.27 256.12 435.22 269.8 401.92 274.87C375.18 278.93 348.1 278.26 322.08 269.9C292.66 260.45 270.6 243.24 265.92 210.14C272.84 211.06 272.83 206.64 272.86 201.65C272.99 178.48 279.05 157.36 294.94 139.77C296.09 138.5 296.71 137.05 295.61 135.4C293.33 132.77 290.22 138.34 288.05 134.63V134.62ZM419.77 166.01C429.64 169.26 431.9 165.2 431.94 157.82C432.02 144.98 422.77 132.21 412.9 132.04C404.58 131.9 397.59 140.49 397.51 151.58C397.47 157.46 398.46 163.54 402.29 168.13C409.02 176.21 414.63 162.26 419.77 166.02V166.01ZM326.77 166.46C333.53 168.36 339.99 164.49 345.75 168.66C351.91 173.13 354.61 168.76 356.88 163.73C359.57 157.76 359.79 151.48 358.41 145.33C355.36 131.7 343.55 128.26 333.01 137.44C323.41 145.8 324.63 155.9 326.76 166.45L326.77 166.46ZM345.6 181.85C344.71 192.32 349.15 198.72 356.79 203.45C370.97 212.23 385.38 212.9 399.26 203.45C406.13 198.78 413.42 193.31 410.8 179.88C389.07 208.15 367.84 209.3 345.6 181.84V181.85ZM315.44 187.57C319.68 186.76 327.02 189.45 327.65 181.55C328.22 174.37 321.74 174.76 316.78 174.91C311.68 175.06 304.49 173.09 303.83 180.79C303.21 187.98 309.81 187.22 315.43 187.57H315.44ZM440.22 187.52C445.15 187.3 451.47 188.31 451.52 181.03C451.56 174.69 445.9 174.78 441.2 174.85C436.25 174.92 429.94 174 429.89 181.29C429.85 187.66 435.51 187.43 440.21 187.52H440.22ZM299.93 130.89C309.34 131.92 311.82 127.84 313.71 119.9C306.09 121.13 303.05 124.38 299.93 130.89Z" fill="#FAC402"/>
<path d="M288.05 134.62C290.23 138.32 293.33 132.76 295.61 135.39C296.71 137.04 296.09 138.49 294.94 139.76C279.05 157.35 272.99 178.47 272.86 201.64C272.83 206.63 272.84 211.05 265.92 210.13C263.26 197.28 266.88 184.8 268.12 172.18C275.03 169.28 274.54 162.87 275.27 157.04L275.21 157.13C278.13 156.45 278.39 154.43 277.78 151.99L277.73 152.07C281.54 149.77 284.46 147.01 283.02 141.97L282.93 142.09C285.77 143.02 286 141.59 285.39 139.38L285.35 139.43C288.88 139.24 290.61 138.04 288.16 134.47L288.05 134.61V134.62Z" fill="#FEFEFE"/>
<path d="M275.27 157.04C274.54 162.87 275.03 169.27 268.12 172.18C269.18 166.51 269.45 160.46 275.27 157.04Z" fill="#FAC402"/>
<path d="M283.02 141.98C284.46 147.02 281.54 149.78 277.73 152.08C276.26 147.02 278.6 143.95 283.02 141.98Z" fill="#FAC402"/>
<path d="M288.16 134.48C290.61 138.05 288.88 139.26 285.35 139.44C283.73 136.34 285.49 135.15 288.16 134.48Z" fill="#FAC402"/>
<path d="M277.78 152C278.39 154.45 278.13 156.46 275.21 157.14C273.56 154.18 274.16 152.33 277.78 152Z" fill="#FAC402"/>
<path d="M285.39 139.39C286 141.59 285.76 143.03 282.93 142.1C282.57 140.12 282.64 138.54 285.39 139.39Z" fill="#FAC402"/>
<path d="M419.77 166.02C414.63 162.26 409.02 176.21 402.29 168.13C398.47 163.54 397.47 157.46 397.51 151.58C397.58 140.49 404.57 131.9 412.9 132.04C422.77 132.21 432.02 144.98 431.94 157.82C431.89 165.2 429.63 169.26 419.77 166.01V166.02ZM413.03 158.48C420.32 156.41 424.54 151.83 420.16 145.69C415.55 139.23 410.32 145 403.52 148.04C409.9 149.92 409.59 154.97 413.03 158.48Z" fill="#4A233E"/>
<path d="M326.77 166.47C324.64 155.92 323.42 145.82 333.02 137.46C343.55 128.28 355.37 131.72 358.42 145.35C359.8 151.5 359.58 157.78 356.89 163.75C354.62 168.78 351.92 173.15 345.76 168.68C340.01 164.51 333.54 168.38 326.78 166.48L326.77 166.47ZM338.48 159.45C345.02 156.36 350.56 154.04 346.9 146.83C342.7 138.55 337.33 145.37 331.33 145.14C333.98 150.45 335.99 154.46 338.48 159.44V159.45Z" fill="#4A233E"/>
<path d="M345.6 181.85C367.84 209.3 389.08 208.15 410.8 179.89C413.41 193.32 406.12 198.78 399.26 203.46C385.38 212.91 370.98 212.24 356.79 203.46C349.14 198.73 344.71 192.32 345.6 181.86V181.85Z" fill="#4A233E"/>
<path d="M315.44 187.57C309.81 187.23 303.22 187.98 303.84 180.79C304.5 173.09 311.69 175.06 316.79 174.91C321.74 174.76 328.23 174.37 327.66 181.55C327.03 189.45 319.69 186.76 315.45 187.57H315.44Z" fill="#FE8B01"/>
<path d="M440.21 187.52C435.52 187.43 429.85 187.67 429.9 181.3C429.95 174 436.26 174.93 441.21 174.86C445.91 174.79 451.57 174.71 451.53 181.04C451.48 188.32 445.16 187.31 440.22 187.52H440.21Z" fill="#FE8B01"/>
<path d="M299.93 130.9C303.06 124.39 306.09 121.14 313.71 119.91C311.82 127.85 309.33 131.93 299.93 130.9Z" fill="#FEFEFE"/>
<path d="M413.03 158.48C409.59 154.96 409.9 149.92 403.52 148.04C410.32 145.01 415.55 139.24 420.16 145.69C424.55 151.83 420.32 156.42 413.03 158.48Z" fill="#742B78"/>
<path d="M338.49 159.45C336 154.47 333.99 150.45 331.34 145.15C337.34 145.38 342.71 138.55 346.91 146.84C350.57 154.05 345.03 156.37 338.49 159.46V159.45Z" fill="#742B78"/>
</g>
<defs>
<clipPath id="clip0_2_69">
<rect width="739.88" height="841.17" fill="white"/>
</clipPath>
</defs>
</svg>
