<?xml version="1.0" standalone="no"?>
<!DOCTYPE svg PUBLIC "-//W3C//DTD SVG 20010904//EN"
 "http://www.w3.org/TR/2001/REC-SVG-20010904/DTD/svg10.dtd">
<svg version="1.0" xmlns="http://www.w3.org/2000/svg"
 width="1504.000000pt" height="1486.000000pt" viewBox="0 0 1504.000000 1486.000000"
 preserveAspectRatio="xMidYMid meet">
<metadata>
Created by potrace 1.16, written by Peter Selinger 2001-2019
</metadata>
<g transform="translate(0.000000,1486.000000) scale(0.100000,-0.100000)"
fill="#000000" stroke="none">
<path d="M6936 14436 c-90 -53 -106 -86 -86 -170 13 -54 13 -86 -9 -1321 -5
-258 -12 -482 -16 -497 -5 -21 -14 -28 -31 -28 -13 0 -32 -4 -42 -9 -29 -15
-87 -31 -110 -31 -12 0 -22 -4 -22 -10 0 -5 -18 -10 -40 -10 -22 0 -40 -4 -40
-10 0 -5 -11 -10 -25 -10 -14 0 -33 -4 -43 -9 -9 -5 -37 -14 -62 -21 -25 -7
-53 -16 -62 -21 -10 -5 -25 -9 -33 -9 -8 0 -15 -4 -15 -10 0 -5 -13 -10 -30
-10 -16 0 -30 -4 -30 -10 0 -5 -9 -10 -20 -10 -11 0 -28 -4 -38 -9 -9 -5 -30
-14 -47 -21 -16 -7 -38 -16 -47 -21 -10 -5 -25 -9 -33 -9 -8 0 -15 -4 -15 -10
0 -5 -6 -10 -12 -10 -16 0 -262 -122 -266 -132 -2 -5 -12 -8 -23 -8 -10 0 -19
-4 -19 -10 0 -5 -6 -10 -13 -10 -7 0 -23 -9 -35 -20 -12 -11 -28 -20 -37 -20
-8 0 -15 -4 -15 -10 0 -5 -6 -10 -13 -10 -7 0 -23 -9 -35 -20 -12 -11 -27 -20
-34 -20 -8 0 -20 -9 -28 -20 -8 -11 -20 -20 -28 -20 -7 0 -22 -9 -34 -20 -12
-11 -28 -20 -35 -20 -7 0 -13 -4 -13 -8 0 -4 -13 -15 -28 -24 -16 -10 -46 -33
-67 -53 -21 -19 -43 -35 -48 -35 -5 0 -21 -13 -35 -28 -15 -15 -43 -39 -62
-52 -19 -13 -51 -40 -70 -60 -19 -19 -64 -60 -100 -90 -78 -67 -69 -57 -160
-160 -41 -47 -91 -101 -110 -120 -20 -19 -47 -51 -60 -70 -14 -19 -37 -48 -52
-64 -16 -16 -28 -33 -28 -38 0 -4 -13 -22 -30 -40 -16 -17 -30 -37 -30 -44 0
-8 -3 -14 -8 -14 -4 0 -18 -18 -32 -40 -14 -22 -28 -40 -32 -40 -5 0 -8 -6 -8
-13 0 -7 -8 -22 -17 -33 -10 -10 -24 -31 -32 -46 -8 -16 -18 -28 -23 -28 -4 0
-8 -9 -8 -19 0 -11 -3 -21 -7 -23 -10 -4 -42 -57 -50 -80 -3 -10 -9 -18 -14
-18 -5 0 -9 -9 -9 -19 0 -11 -3 -21 -7 -23 -8 -3 -35 -51 -85 -153 -16 -33
-33 -68 -39 -77 -5 -10 -9 -25 -9 -33 0 -8 -4 -15 -10 -15 -5 0 -10 -7 -10
-15 0 -8 -5 -24 -10 -35 -5 -11 -14 -29 -20 -40 -5 -11 -10 -27 -10 -35 0 -8
-4 -15 -10 -15 -5 0 -10 -9 -10 -20 0 -11 -5 -29 -10 -40 -5 -11 -15 -29 -20
-40 -6 -11 -10 -29 -10 -40 0 -11 -4 -20 -10 -20 -5 0 -10 -13 -10 -29 0 -17
-5 -33 -10 -36 -5 -3 -10 -15 -10 -26 0 -10 -4 -27 -9 -37 -15 -29 -31 -87
-31 -110 0 -12 -4 -22 -10 -22 -5 0 -10 -18 -10 -39 0 -22 -4 -42 -9 -45 -5
-3 -11 -23 -14 -43 -7 -44 -23 -126 -33 -165 l-6 -28 -95 0 c-99 0 -133 -10
-166 -50 -17 -21 -18 -44 -14 -379 6 -428 8 -456 45 -488 15 -13 33 -23 40
-23 6 0 12 -4 12 -10 0 -6 35 -10 84 -10 l83 0 12 -92 c7 -51 17 -120 22 -153
21 -141 30 -199 39 -262 6 -38 13 -93 16 -123 3 -30 9 -64 14 -75 8 -19 13
-51 26 -185 3 -30 9 -64 14 -75 5 -11 11 -47 14 -80 3 -33 11 -89 16 -125 44
-274 69 -445 76 -520 3 -30 9 -64 14 -75 5 -11 11 -42 14 -70 6 -60 21 -166
36 -255 6 -36 15 -94 20 -130 5 -36 14 -94 20 -130 15 -89 30 -195 36 -255 3
-27 9 -59 14 -70 5 -11 12 -47 15 -80 3 -33 8 -87 11 -120 3 -33 10 -64 15
-69 5 -6 9 -37 9 -71 0 -34 4 -65 9 -71 5 -5 12 -34 15 -64 5 -53 14 -117 36
-260 6 -36 15 -94 20 -130 9 -64 19 -131 40 -267 6 -38 13 -90 16 -118 3 -27
9 -59 14 -70 5 -11 11 -45 14 -75 3 -30 10 -86 16 -125 25 -166 29 -194 39
-265 15 -102 30 -203 42 -275 6 -33 12 -85 15 -115 3 -30 9 -64 14 -75 5 -11
11 -42 14 -70 7 -63 26 -200 56 -395 6 -36 15 -94 20 -130 5 -36 14 -94 20
-130 6 -36 15 -94 20 -130 5 -36 14 -95 20 -132 5 -38 15 -98 20 -135 6 -38
15 -97 20 -133 5 -36 14 -94 20 -130 6 -36 15 -94 20 -130 9 -65 21 -141 40
-265 6 -36 15 -94 20 -130 31 -199 47 -310 56 -377 6 -47 7 -48 41 -48 19 0
40 -6 47 -12 18 -20 35 -86 41 -168 7 -88 21 -226 31 -290 4 -29 15 -53 31
-68 21 -21 30 -23 76 -17 53 7 848 15 3347 33 767 6 1411 14 1430 18 44 8 75
40 84 85 14 72 27 136 36 182 25 118 31 155 37 192 7 56 18 65 74 65 49 0 49
0 49 33 0 18 4 37 9 42 5 6 12 30 15 55 3 25 10 77 16 115 6 39 13 95 16 125
3 30 10 59 15 64 5 6 9 36 9 67 0 32 5 61 10 64 6 3 10 30 10 59 0 28 4 56 9
62 5 5 12 34 15 64 3 30 10 85 16 123 18 119 30 200 40 267 5 36 14 94 20 130
20 125 31 195 36 245 3 28 9 59 14 70 5 11 11 43 14 70 3 28 10 82 16 120 6
39 13 93 16 120 3 28 9 59 14 70 5 11 11 45 14 75 7 60 19 149 36 250 6 36 13
90 16 120 3 30 9 64 14 75 5 11 11 43 14 70 3 28 10 79 15 115 17 106 30 190
41 265 12 84 26 167 40 255 6 36 15 101 20 145 4 44 13 103 20 130 12 53 25
127 40 235 5 36 14 93 20 128 13 78 27 169 40 252 5 36 14 94 20 130 15 94 29
193 40 285 5 44 14 112 20 150 6 39 13 98 16 133 3 34 9 62 14 62 5 0 11 28
14 63 2 34 10 91 16 127 6 36 15 94 20 130 14 98 29 198 40 265 19 122 31 201
36 250 3 28 9 59 14 70 5 11 11 43 14 70 6 56 20 156 36 255 5 36 14 94 20
130 5 36 14 94 20 130 6 36 15 94 20 130 5 36 14 94 20 130 17 105 29 191 36
250 3 30 9 64 14 75 9 19 13 48 26 188 l6 57 67 0 c107 0 110 8 131 345 6 94
14 244 19 335 4 91 9 170 11 175 4 13 -10 67 -23 83 -20 26 -72 41 -122 36
-167 -16 -176 -16 -210 1 -19 9 -35 22 -35 30 0 8 -4 15 -9 15 -5 0 -12 19
-15 43 -7 59 -23 152 -36 217 -6 30 -13 73 -17 95 -3 22 -9 44 -14 50 -5 5 -9
21 -9 36 0 15 -4 30 -9 33 -5 3 -12 22 -15 41 -3 19 -9 51 -12 70 -3 19 -10
38 -15 41 -5 3 -9 18 -9 34 0 16 -4 32 -10 35 -5 3 -10 17 -10 30 0 13 -4 27
-10 30 -5 3 -10 15 -10 26 0 10 -4 28 -10 39 -5 11 -14 29 -20 40 -5 11 -10
29 -10 40 0 11 -4 20 -10 20 -5 0 -10 11 -10 24 0 14 -4 28 -10 31 -5 3 -10
15 -10 26 0 10 -4 19 -10 19 -5 0 -10 7 -10 15 0 8 -4 24 -10 35 -5 11 -14 29
-20 40 -5 11 -10 27 -10 35 0 8 -4 15 -10 15 -5 0 -10 9 -10 20 0 11 -4 20
-10 20 -5 0 -10 9 -10 20 0 11 -4 20 -10 20 -5 0 -10 9 -10 20 0 11 -4 20 -10
20 -5 0 -10 9 -10 20 0 11 -4 20 -10 20 -5 0 -10 9 -10 20 0 11 -3 20 -7 20
-5 0 -13 10 -18 23 -20 43 -60 112 -72 125 -6 6 -15 21 -18 32 -3 11 -11 20
-16 20 -5 0 -9 9 -9 19 0 11 -4 21 -8 23 -5 2 -28 32 -52 68 -24 36 -47 66
-52 68 -4 2 -8 9 -8 16 0 7 -13 27 -30 44 -16 18 -30 36 -30 40 0 5 -12 22
-28 38 -15 16 -35 40 -44 53 -66 93 -395 425 -488 491 -19 14 -48 37 -64 52
-16 16 -34 28 -40 28 -6 0 -18 9 -26 20 -8 11 -19 20 -25 20 -5 0 -26 14 -45
30 -19 16 -39 30 -43 30 -4 0 -17 9 -29 20 -12 11 -28 20 -35 20 -7 0 -13 5
-13 10 0 6 -6 10 -13 10 -7 0 -23 9 -35 20 -12 11 -28 20 -37 20 -8 0 -15 3
-15 8 0 4 -10 12 -23 18 -60 30 -112 60 -115 67 -2 4 -12 7 -23 7 -10 0 -19 5
-19 10 0 6 -9 10 -20 10 -11 0 -20 5 -20 10 0 6 -9 10 -20 10 -11 0 -20 5 -20
10 0 6 -11 10 -24 10 -14 0 -28 5 -31 10 -3 6 -15 10 -26 10 -10 0 -19 5 -19
10 0 6 -9 10 -19 10 -11 0 -23 5 -26 10 -3 6 -17 10 -31 10 -13 0 -24 3 -24 8
0 4 -35 18 -78 30 -42 13 -85 28 -94 33 -10 5 -29 9 -43 9 -14 0 -25 4 -25 9
0 5 -15 11 -32 14 -18 4 -49 9 -68 12 -19 4 -44 10 -55 15 -11 5 -38 11 -60
15 -22 3 -65 10 -95 15 -30 6 -91 15 -135 20 -44 5 -109 14 -145 20 -36 6
-107 13 -158 16 l-94 6 6 167 c3 91 11 243 16 336 5 94 14 262 20 375 23 474
38 726 55 888 6 52 5 72 -4 72 -6 0 -11 7 -11 16 0 22 -20 40 -71 62 -87 38
-110 39 -534 41 l-420 1 -39 -24z m867 -303 c-1 -38 -5 -135 -8 -218 -9 -222
-23 -541 -35 -795 -5 -124 -14 -306 -18 -405 -5 -99 -12 -187 -16 -196 -6 -14
-38 -18 -229 -23 -190 -6 -322 -14 -427 -28 l-25 -3 1 140 c0 77 6 309 13 515
7 206 16 497 21 645 4 149 11 307 15 353 l8 82 351 0 352 0 -3 -67z m-107
-2180 c-2 -137 -9 -347 -15 -468 -6 -121 -15 -318 -21 -437 -5 -120 -15 -316
-21 -435 -5 -120 -14 -308 -19 -418 -17 -368 -29 -619 -36 -716 -9 -135 19
-128 -398 -107 l-248 12 7 85 c3 48 11 293 15 546 18 913 32 1521 35 1570 2
28 4 163 4 302 1 246 2 253 23 273 21 19 35 20 257 21 130 0 245 4 256 9 11 5
53 9 92 9 l73 1 -4 -247z m399 231 c61 -3 119 -9 130 -14 11 -5 47 -11 80 -14
60 -4 125 -16 200 -35 22 -6 54 -13 70 -16 17 -4 39 -10 50 -15 11 -4 40 -13
65 -20 25 -6 53 -16 62 -21 10 -5 27 -9 37 -9 11 0 23 -4 26 -10 3 -5 19 -10
36 -10 16 0 29 -4 29 -10 0 -5 7 -10 15 -10 9 0 35 -9 57 -20 23 -11 48 -20
55 -20 7 0 13 -4 13 -10 0 -5 9 -10 20 -10 11 0 20 -4 20 -10 0 -5 9 -10 20
-10 11 0 20 -4 20 -10 0 -5 9 -10 20 -10 11 0 20 -4 20 -10 0 -5 9 -10 20 -10
11 0 20 -3 20 -8 0 -4 17 -15 38 -24 37 -17 93 -49 102 -58 3 -3 14 -10 25
-16 50 -27 70 -40 89 -56 11 -10 26 -18 33 -18 7 0 13 -3 13 -8 0 -4 18 -18
40 -32 22 -14 40 -28 40 -32 0 -5 6 -8 14 -8 7 0 26 -12 42 -28 16 -15 45 -38
64 -52 19 -13 46 -36 60 -50 14 -14 42 -38 63 -53 48 -36 152 -141 247 -247
41 -47 82 -92 90 -100 9 -8 27 -31 40 -50 14 -19 37 -48 52 -64 16 -16 28 -33
28 -38 0 -5 11 -20 25 -34 14 -14 25 -29 25 -33 0 -4 11 -21 25 -37 14 -16 25
-33 25 -37 0 -4 9 -17 20 -29 11 -12 20 -28 20 -35 0 -7 5 -13 10 -13 6 0 10
-6 10 -13 0 -7 9 -23 20 -35 11 -12 20 -28 20 -37 0 -8 4 -15 9 -15 5 0 11 -8
14 -17 8 -24 40 -77 50 -81 4 -2 7 -12 7 -23 0 -10 5 -19 10 -19 6 0 10 -9 10
-20 0 -11 5 -20 10 -20 6 0 10 -9 10 -20 0 -11 3 -20 8 -20 8 0 32 -49 32 -67
0 -7 5 -13 10 -13 6 0 10 -9 10 -20 0 -11 4 -20 8 -20 5 0 15 -22 22 -50 7
-27 16 -50 20 -50 4 0 13 -22 20 -50 7 -27 17 -50 22 -50 4 0 8 -11 8 -24 0
-14 5 -28 10 -31 6 -3 10 -17 10 -30 0 -13 5 -27 10 -30 6 -3 10 -19 10 -36 0
-16 5 -29 10 -29 6 0 10 -15 10 -34 0 -19 5 -38 10 -41 6 -3 10 -21 10 -39 0
-17 4 -36 9 -41 9 -10 12 -27 28 -150 5 -33 11 -65 15 -70 3 -6 8 -53 9 -105
l3 -95 -774 1 c-426 0 -1121 4 -1545 9 -666 6 -772 9 -787 23 -10 8 -15 19
-12 24 4 6 11 121 16 257 9 242 17 404 37 834 23 454 32 658 42 852 5 110 13
283 19 385 5 102 12 254 16 339 l6 153 42 -6 c22 -3 91 -9 151 -12z m-1279
-326 c-15 -722 -27 -1324 -36 -1813 -5 -297 -13 -556 -16 -577 -3 -20 -2 -44
4 -53 6 -12 5 -26 -4 -44 -13 -26 -17 -27 -76 -24 -35 2 -596 7 -1248 11 -652
5 -1193 12 -1202 16 -10 5 -18 17 -18 27 0 10 -5 19 -11 19 -13 0 -6 139 10
218 15 73 31 151 38 190 3 17 9 32 14 32 5 0 9 10 9 22 0 24 32 121 61 185 10
24 19 50 19 58 0 8 5 15 10 15 6 0 10 9 10 20 0 11 5 20 10 20 6 0 10 6 10 14
0 16 62 140 73 144 4 2 7 12 7 23 0 10 3 19 8 19 4 0 12 10 17 23 15 31 59
111 65 117 3 3 11 17 19 33 8 15 18 27 23 27 4 0 8 5 8 11 0 12 61 102 73 107
4 2 7 9 7 16 0 7 8 21 18 32 10 10 28 35 42 54 13 19 27 37 30 40 3 3 17 21
30 40 13 19 31 42 40 50 8 8 36 40 60 70 58 71 383 396 435 435 22 17 54 42
70 57 17 16 35 28 40 28 6 0 17 9 25 20 8 11 19 20 25 20 5 0 24 14 42 30 18
17 36 30 40 30 4 0 24 14 43 30 19 16 41 30 48 30 6 0 12 4 12 9 0 5 14 14 30
21 17 7 30 16 30 21 0 5 6 9 13 9 7 0 22 8 33 18 10 9 38 27 62 40 23 12 61
32 85 45 23 12 44 25 45 30 2 4 12 7 23 7 10 0 19 5 19 10 0 6 6 10 14 10 8 0
34 10 58 21 23 12 52 25 63 29 29 11 77 31 97 41 10 5 29 9 43 9 14 0 25 5 25
10 0 6 11 10 24 10 14 0 28 5 31 10 3 6 19 10 36 10 16 0 29 5 29 10 0 6 11
10 24 10 14 0 28 5 31 10 3 6 24 10 46 10 21 0 39 5 39 10 0 6 17 10 38 10 20
0 44 5 52 10 8 5 41 10 73 10 l59 0 -6 -262z m-971 -2758 c766 -10 1310 -17
3180 -40 380 -4 782 -11 895 -14 113 -3 462 -8 775 -9 415 -2 578 -7 599 -15
26 -11 28 -15 22 -55 -3 -23 -10 -103 -15 -177 -11 -147 -17 -184 -35 -199 -7
-6 -118 -6 -296 -1 -157 5 -550 9 -875 9 -963 1 -2823 20 -3065 32 -142 7
-776 12 -1715 13 l-1490 1 -6 170 c-4 94 -10 201 -14 238 l-8 68 609 -5 c335
-2 983 -9 1439 -16z m-560 -701 c578 -5 1183 -12 1345 -14 162 -3 592 -7 955
-10 992 -8 2491 -23 3012 -31 l461 -7 5 -26 c5 -26 -4 -127 -23 -251 -5 -36
-14 -96 -20 -135 -6 -38 -15 -97 -20 -130 -5 -33 -13 -94 -19 -135 -6 -41 -15
-104 -21 -140 -6 -36 -15 -94 -20 -130 -5 -36 -14 -96 -20 -135 -6 -38 -15
-101 -20 -140 -13 -92 -27 -185 -39 -265 -6 -36 -15 -99 -21 -140 -6 -41 -15
-104 -21 -140 -12 -80 -26 -173 -39 -265 -5 -38 -14 -99 -19 -135 -6 -36 -15
-96 -20 -135 -6 -38 -15 -101 -22 -140 -6 -38 -15 -99 -20 -135 -4 -36 -13
-94 -18 -130 -6 -36 -15 -98 -21 -137 -5 -40 -15 -106 -20 -145 -6 -40 -15
-102 -21 -138 -16 -106 -27 -180 -38 -265 -6 -44 -16 -109 -21 -145 -6 -36
-15 -94 -20 -130 -5 -36 -14 -96 -20 -135 -6 -38 -15 -99 -20 -135 -10 -70
-23 -157 -40 -260 -5 -36 -14 -101 -20 -145 -5 -44 -14 -107 -20 -140 -10 -57
-15 -86 -41 -265 -6 -41 -15 -104 -20 -140 -5 -36 -14 -96 -19 -135 -20 -138
-31 -211 -40 -270 -5 -33 -14 -91 -19 -130 -6 -38 -15 -101 -21 -140 -6 -38
-15 -101 -20 -140 -14 -97 -28 -189 -39 -260 -5 -33 -14 -94 -20 -135 -21
-165 -24 -180 -29 -180 -2 0 -12 8 -21 18 -21 22 -57 42 -76 42 -8 0 -15 5
-15 10 0 6 -13 10 -30 10 -16 0 -30 5 -30 10 0 13 -247 13 -255 0 -3 -5 -19
-10 -35 -10 -15 0 -30 -3 -32 -7 -1 -5 -24 -19 -50 -32 -27 -13 -48 -28 -48
-33 0 -4 -5 -8 -12 -8 -15 0 -88 -70 -88 -85 0 -6 -9 -17 -20 -25 -11 -8 -20
-22 -20 -32 0 -10 -4 -18 -10 -18 -5 0 -10 -9 -10 -20 0 -11 -4 -20 -9 -20 -8
0 -24 -95 -23 -140 2 -48 14 -115 23 -124 5 -6 9 -17 9 -26 0 -9 9 -26 20 -38
11 -12 20 -28 20 -37 0 -13 -36 -15 -300 -15 -193 0 -300 4 -300 10 0 6 9 10
20 10 11 0 20 3 20 8 0 4 17 18 39 31 21 13 46 37 55 52 9 16 22 34 29 42 19
21 37 55 37 72 0 8 4 15 9 15 14 0 23 68 24 175 0 104 -9 165 -24 165 -5 0 -9
6 -9 13 0 18 -24 67 -32 67 -5 0 -8 6 -8 14 0 19 -105 126 -124 126 -9 0 -16
5 -16 10 0 6 -9 10 -20 10 -11 0 -20 5 -20 10 0 6 -10 10 -23 10 -13 0 -28 5
-34 11 -20 20 -263 -1 -263 -22 0 -5 -9 -9 -20 -9 -11 0 -20 -4 -20 -10 0 -5
-6 -10 -14 -10 -21 0 -146 -123 -146 -143 0 -9 -3 -17 -7 -17 -9 0 -33 -49
-33 -67 0 -7 -4 -13 -9 -13 -13 0 -23 -65 -23 -150 0 -85 10 -150 23 -150 5 0
9 -13 9 -30 0 -16 5 -30 10 -30 6 0 10 -7 10 -15 0 -31 117 -150 165 -169 20
-7 20 -7 1 -18 -14 -8 -99 -9 -280 -4 -143 3 -440 1 -659 -5 -219 -6 -401 -8
-405 -5 -3 4 -2 10 3 14 9 7 24 29 44 69 41 83 41 204 0 285 -5 10 -9 25 -9
33 0 8 -4 15 -10 15 -5 0 -10 8 -10 18 0 10 -9 24 -20 32 -11 8 -20 20 -20 26
0 13 -70 84 -83 84 -4 0 -17 9 -29 20 -12 11 -28 20 -35 20 -7 0 -13 5 -13 10
0 6 -9 10 -19 10 -11 0 -23 5 -26 10 -3 6 -16 10 -29 10 -12 0 -27 5 -33 11
-14 14 -232 14 -246 0 -6 -6 -24 -11 -39 -11 -16 0 -36 -4 -46 -9 -9 -5 -32
-16 -49 -23 -18 -7 -33 -16 -33 -20 0 -5 -6 -8 -14 -8 -19 0 -126 -107 -126
-126 0 -8 -4 -14 -10 -14 -5 0 -10 -9 -10 -20 0 -11 -3 -20 -8 -20 -16 0 -32
-84 -32 -170 0 -86 16 -170 32 -170 5 0 8 -6 8 -13 0 -7 9 -23 21 -36 12 -12
19 -24 17 -26 -7 -7 -439 -7 -446 0 -3 3 -2 9 4 13 9 6 26 35 55 94 5 10 9 31
9 47 0 16 4 41 10 56 9 25 4 63 -22 155 -26 93 -88 175 -181 239 -49 34 -53
51 -11 51 31 0 104 23 104 32 0 5 9 8 20 8 11 0 20 5 20 10 0 6 6 10 14 10 17
0 146 125 146 141 0 5 9 19 20 31 11 12 20 28 20 35 0 7 5 13 10 13 6 0 10 9
10 20 0 11 5 20 10 20 6 0 10 9 10 19 0 11 5 23 10 26 6 3 10 19 10 35 0 16 4
32 10 35 13 8 13 202 0 210 -5 3 -10 19 -10 35 0 16 -4 32 -10 35 -5 3 -10 15
-10 26 0 10 -4 19 -10 19 -5 0 -10 9 -10 20 0 11 -4 20 -8 20 -5 0 -15 12 -23
27 -8 16 -28 41 -44 58 -38 38 -146 95 -179 95 -14 0 -28 5 -31 10 -8 13 -172
13 -180 0 -3 -5 -22 -10 -41 -10 -19 0 -34 -4 -34 -10 0 -5 -6 -10 -13 -10
-18 0 -67 -24 -67 -32 0 -5 -7 -8 -16 -8 -20 0 -184 -164 -184 -184 0 -9 -4
-16 -10 -16 -5 0 -10 -9 -10 -20 0 -11 -4 -20 -10 -20 -5 0 -10 -7 -10 -15 0
-8 -4 -23 -9 -33 -23 -45 -31 -97 -31 -200 0 -63 4 -113 10 -117 6 -3 10 -13
10 -22 0 -23 42 -113 52 -113 4 0 8 -6 8 -14 0 -19 87 -106 106 -106 8 0 14
-9 14 -20 0 -17 -7 -20 -39 -20 -22 0 -43 -4 -46 -10 -3 -5 -17 -10 -31 -10
-13 0 -24 -4 -24 -10 0 -5 -7 -10 -15 -10 -18 0 -51 -18 -79 -42 -29 -26 -34
-23 -41 30 -3 26 -10 70 -15 97 -5 28 -12 70 -16 95 -12 89 -24 166 -34 230
-6 36 -15 94 -20 130 -5 36 -14 94 -20 130 -6 36 -15 94 -20 130 -6 36 -15 94
-20 130 -11 66 -22 146 -40 280 -9 73 -19 137 -39 250 -17 100 -31 184 -42
260 -6 41 -15 102 -20 135 -5 33 -14 87 -18 120 -22 148 -31 204 -41 265 -19
117 -30 184 -40 260 -5 41 -15 102 -20 135 -11 60 -21 129 -40 260 -10 77 -16
112 -60 378 -6 34 -15 96 -20 137 -5 41 -14 104 -20 140 -6 36 -15 92 -19 125
-14 94 -30 195 -42 260 -5 33 -14 89 -19 125 -20 144 -30 208 -40 260 -6 30
-15 91 -20 135 -5 44 -15 107 -20 140 -12 68 -25 150 -40 245 -5 36 -14 94
-20 130 -6 36 -15 99 -20 140 -5 41 -14 100 -20 130 -11 60 -27 176 -36 255
-3 28 -9 59 -14 70 -5 11 -11 43 -14 70 -3 28 -10 79 -15 115 -12 75 -28 176
-41 270 -5 36 -14 92 -19 125 -5 33 -12 85 -16 116 l-8 56 59 -4 c33 -2 532
-8 1109 -14z m4631 -7256 c-4 -21 -11 -63 -16 -93 -14 -83 -21 -123 -26 -147
l-4 -23 -363 0 c-199 -1 -526 -5 -727 -10 -504 -13 -2686 -13 -2708 -1 -14 9
-13 10 8 11 30 0 120 77 120 102 0 9 4 19 9 23 13 8 11 68 -3 78 -8 6 -7 10 2
14 21 8 3 23 -29 23 -58 0 -27 16 54 28 62 9 509 12 1743 13 912 1 1700 4
1749 8 50 5 114 9 144 9 l53 2 -6 -37z m-3983 2 c34 -9 36 -25 3 -25 -27 0
-44 -16 -24 -22 8 -3 4 -9 -10 -17 -18 -10 -22 -20 -22 -63 0 -43 4 -54 28
-74 15 -13 30 -24 35 -24 4 0 7 -6 7 -14 0 -15 30 -26 74 -26 16 0 26 -3 22
-7 -15 -16 -669 -42 -719 -29 -20 5 -26 14 -31 48 -16 105 -26 177 -32 221
l-6 49 323 -5 c178 -3 336 -8 352 -12z"/>
<path d="M9195 7990 c-11 -5 -39 -9 -62 -9 -23 -1 -45 -5 -48 -11 -3 -5 -19
-10 -36 -10 -16 0 -29 -4 -29 -10 0 -5 -9 -10 -19 -10 -11 0 -23 -4 -26 -10
-3 -5 -17 -10 -31 -10 -13 0 -24 -4 -24 -10 0 -5 -6 -10 -13 -10 -7 0 -23 -9
-35 -20 -12 -11 -26 -20 -32 -20 -6 0 -22 -11 -36 -25 -14 -14 -28 -25 -32
-25 -12 0 -87 -73 -112 -110 -14 -19 -32 -44 -42 -54 -10 -11 -18 -25 -18 -32
0 -7 -3 -14 -7 -16 -13 -5 -73 -129 -73 -149 0 -10 -4 -20 -9 -23 -9 -6 -14
-28 -32 -156 -16 -105 -9 -263 12 -285 5 -5 9 -21 9 -36 0 -15 5 -31 10 -34 6
-3 10 -17 10 -31 0 -13 5 -24 10 -24 6 0 10 -6 10 -14 0 -14 40 -97 51 -106 3
-3 12 -16 19 -29 31 -59 161 -188 223 -220 15 -8 27 -18 27 -23 0 -4 9 -8 20
-8 11 0 20 -4 20 -10 0 -5 9 -10 20 -10 11 0 20 -4 20 -8 0 -4 21 -13 48 -21
26 -7 56 -16 67 -21 45 -19 86 -23 210 -23 129 0 192 7 230 23 11 4 36 13 55
20 39 13 122 52 130 60 3 3 17 11 33 19 15 8 27 18 27 23 0 4 7 8 15 8 18 0
185 168 185 186 0 8 4 14 9 14 5 0 14 14 21 30 7 17 16 30 21 30 5 0 9 9 9 20
0 11 5 20 10 20 6 0 10 7 10 15 0 8 5 24 10 35 6 11 15 29 20 40 6 11 10 31
10 45 0 14 4 25 9 25 9 0 15 41 27 180 5 56 -6 153 -23 200 -3 8 -8 33 -10 55
-2 22 -9 42 -14 43 -5 2 -9 10 -9 18 0 8 -4 22 -9 32 -5 9 -20 38 -32 65 -13
26 -27 47 -31 47 -5 0 -8 6 -8 13 0 6 -10 24 -23 39 -52 61 -57 69 -57 76 0 4
-12 15 -27 24 -16 9 -44 32 -64 50 -38 36 -83 66 -111 75 -10 3 -18 9 -18 14
0 5 -9 9 -19 9 -11 0 -23 5 -26 10 -3 6 -17 10 -31 10 -13 0 -24 5 -24 10 0 6
-13 10 -30 10 -16 0 -30 4 -30 9 0 18 -270 37 -305 21z m533 -547 c18 -7 42
-25 54 -38 16 -18 32 -25 59 -25 21 0 41 -4 44 -10 4 -6 -7 -10 -24 -10 -46 0
-72 -27 -65 -67 l6 -33 -50 0 c-28 0 -54 5 -57 10 -3 6 -18 10 -32 10 -41 0
-92 22 -99 42 -3 10 -14 18 -24 18 -10 0 -22 5 -25 10 -3 6 -17 10 -31 10 -13
0 -24 5 -24 10 0 6 16 10 36 10 35 0 64 18 64 40 0 6 5 20 10 31 9 17 18 18
68 12 31 -3 72 -12 90 -20z m-610 -272 c9 -5 31 -15 47 -22 68 -31 138 -121
165 -215 7 -23 10 -59 7 -80 -14 -90 -20 -114 -28 -114 -5 0 -9 -8 -9 -17 -1
-26 -98 -116 -141 -131 -43 -14 -159 -16 -159 -2 0 6 -7 10 -15 10 -47 0 -165
118 -165 165 0 8 -4 15 -9 15 -9 0 -21 68 -22 120 -1 38 11 91 28 130 23 49
109 130 139 130 13 0 24 5 24 10 0 12 114 13 138 1z"/>
<path d="M6018 7895 c-3 -4 -42 -11 -85 -16 -114 -12 -153 -20 -153 -30 0 -5
-13 -9 -30 -9 -16 0 -30 -4 -30 -10 0 -5 -9 -10 -20 -10 -11 0 -20 -4 -20 -10
0 -5 -6 -10 -13 -10 -18 0 -67 -24 -67 -32 0 -5 -6 -8 -13 -8 -7 0 -22 -8 -33
-17 -11 -10 -49 -43 -84 -73 -82 -69 -81 -68 -110 -110 -13 -19 -27 -37 -30
-40 -11 -11 -64 -111 -83 -160 -5 -14 -13 -33 -18 -42 -5 -10 -9 -29 -9 -42 0
-14 -4 -27 -9 -30 -9 -6 -23 -115 -24 -186 -1 -82 19 -195 45 -260 6 -14 14
-34 18 -45 22 -60 68 -141 98 -172 12 -13 22 -28 22 -33 0 -11 116 -130 127
-130 4 0 24 -14 43 -30 19 -16 41 -30 48 -30 6 0 12 -4 12 -8 0 -9 89 -52 107
-52 6 0 13 -4 15 -8 4 -10 98 -42 163 -55 95 -19 415 -8 415 14 0 5 13 9 29 9
17 0 33 5 36 10 3 6 17 10 31 10 13 0 24 5 24 10 0 6 9 10 20 10 11 0 20 5 20
10 0 6 9 10 20 10 11 0 20 5 20 10 0 6 9 10 20 10 11 0 20 4 20 9 0 5 9 13 20
16 11 4 31 16 43 28 12 12 43 37 68 56 25 19 61 55 80 80 19 25 42 55 52 65 9
11 17 25 17 32 0 7 3 14 8 16 4 2 18 26 31 53 13 28 27 58 32 67 5 10 9 27 9
38 0 11 4 20 9 20 14 0 23 85 24 230 0 157 -8 207 -53 305 -10 22 -24 55 -32
73 -7 17 -16 32 -20 32 -5 0 -8 6 -8 13 0 6 -11 25 -25 41 -14 16 -25 33 -25
37 0 11 -137 149 -147 149 -4 0 -24 14 -43 30 -19 16 -41 30 -47 30 -7 0 -13
5 -13 10 0 6 -9 10 -20 10 -11 0 -20 5 -20 10 0 6 -6 10 -13 10 -7 0 -32 9
-55 20 -22 11 -48 20 -56 20 -8 0 -18 5 -21 10 -3 6 -19 10 -35 10 -16 0 -31
4 -34 9 -3 4 -38 11 -78 15 -40 4 -93 9 -118 12 -25 3 -48 3 -52 -1z m231
-627 c28 -6 51 -15 51 -20 0 -4 9 -8 20 -8 13 0 20 -7 20 -20 0 -15 7 -20 25
-20 36 0 79 -21 63 -32 -7 -4 -25 -8 -40 -8 -27 0 -28 -2 -28 -46 l0 -47 -66
7 c-37 4 -75 11 -85 16 -10 6 -28 10 -41 10 -14 0 -33 12 -47 30 -16 21 -32
30 -52 30 -18 0 -29 5 -29 14 0 16 21 26 56 26 14 0 24 6 24 14 0 8 4 26 10
40 11 30 38 33 119 14z m-459 -187 c48 -12 70 -22 70 -32 0 -5 6 -9 14 -9 7 0
30 -19 50 -42 55 -63 56 -66 56 -86 0 -10 5 -23 11 -29 6 -6 11 -48 11 -98 1
-70 -3 -95 -22 -136 -13 -27 -27 -49 -32 -49 -4 0 -8 -7 -8 -14 0 -8 -17 -28
-37 -43 -21 -15 -39 -31 -41 -35 -2 -5 -12 -8 -22 -8 -10 0 -20 -5 -22 -11 -6
-18 -166 -17 -205 1 -18 8 -33 18 -33 22 0 5 -6 8 -14 8 -18 0 -86 68 -86 86
0 8 -4 14 -10 14 -5 0 -10 9 -10 20 0 11 -4 20 -8 20 -4 0 -14 33 -21 74 -10
54 -10 79 -2 94 6 11 11 32 11 46 0 14 5 26 10 26 6 0 10 9 10 20 0 11 5 20
10 20 6 0 10 7 10 16 0 35 106 110 190 133 34 10 49 9 120 -8z"/>
<path d="M7748 5975 c-4 -4 -58 -11 -120 -16 -186 -15 -222 -20 -243 -29 -11
-5 -38 -11 -60 -14 -22 -2 -62 -10 -90 -16 -27 -6 -67 -14 -88 -17 -20 -3 -40
-9 -43 -14 -3 -5 -18 -9 -35 -9 -16 0 -29 -4 -29 -10 0 -5 -13 -10 -30 -10
-16 0 -30 -4 -30 -10 0 -5 -13 -10 -30 -10 -16 0 -30 -4 -30 -10 0 -5 -9 -10
-20 -10 -11 0 -20 -4 -20 -10 0 -5 -9 -10 -20 -10 -11 0 -20 -4 -20 -10 0 -5
-7 -10 -16 -10 -9 0 -24 -8 -33 -18 -9 -9 -29 -24 -44 -32 -28 -14 -28 -16
-23 -75 7 -86 17 -135 27 -135 5 0 9 -7 9 -15 0 -22 45 -108 64 -124 9 -8 16
-17 16 -22 0 -20 177 -199 198 -199 4 0 23 -14 42 -30 19 -16 41 -30 48 -30 6
0 12 -4 12 -10 0 -5 9 -10 20 -10 11 0 20 -4 20 -10 0 -5 9 -10 20 -10 11 0
20 -4 20 -10 0 -5 9 -10 20 -10 11 0 20 -4 20 -8 0 -4 21 -14 48 -21 26 -8 49
-17 52 -20 8 -10 75 -31 98 -31 12 0 22 -4 22 -9 0 -5 19 -11 43 -14 23 -4 76
-12 117 -19 126 -20 450 -11 466 13 3 5 20 9 39 9 19 0 37 5 40 10 3 6 17 10
30 10 13 0 27 5 30 10 3 6 15 10 26 10 10 0 27 4 37 9 9 5 47 24 85 42 37 19
67 37 67 41 0 5 7 8 15 8 17 0 225 206 225 223 0 7 9 19 20 27 11 8 20 19 20
25 0 6 8 20 18 31 24 26 95 169 111 224 7 25 17 53 22 62 10 20 12 128 3 152
-3 9 -10 16 -15 16 -6 0 -19 9 -31 20 -12 11 -28 20 -35 20 -7 0 -13 5 -13 10
0 6 -10 10 -23 10 -13 0 -27 3 -31 7 -12 12 -80 33 -108 33 -15 0 -29 4 -32 9
-3 5 -32 12 -63 15 -32 4 -94 12 -138 17 -94 12 -647 23 -657 14z m-188 -569
c103 -16 221 -54 240 -77 3 -3 12 -10 21 -15 31 -17 114 -99 128 -126 8 -16
18 -28 21 -28 4 0 13 -13 20 -30 7 -16 16 -30 21 -30 5 0 9 -27 9 -59 l0 -59
-107 -7 c-128 -9 -425 15 -447 36 -6 5 -22 9 -37 9 -15 0 -31 5 -34 10 -3 6
-17 10 -31 10 -13 0 -24 5 -24 10 0 6 -9 10 -20 10 -11 0 -20 5 -20 10 0 6
-10 10 -22 10 -13 0 -34 9 -48 20 -14 11 -29 20 -34 20 -4 0 -23 12 -41 28
-19 15 -48 39 -66 53 l-32 26 44 44 c46 45 90 76 122 86 9 3 17 9 17 14 0 5
13 9 29 9 17 0 33 5 36 10 3 6 21 10 38 10 18 0 39 5 47 10 20 13 68 12 170
-4z"/>
<path d="M6670 3390 c-8 -5 -36 -10 -62 -10 -26 0 -50 -4 -53 -10 -3 -5 -17
-10 -31 -10 -13 0 -24 -4 -24 -10 0 -5 -9 -10 -20 -10 -11 0 -20 -4 -20 -10 0
-5 -6 -10 -14 -10 -20 0 -117 -97 -144 -143 -12 -21 -22 -47 -22 -58 0 -10 -4
-19 -9 -19 -9 0 -24 -86 -24 -140 0 -32 13 -107 29 -172 3 -16 10 -28 15 -28
5 0 9 -9 9 -20 0 -11 5 -20 10 -20 6 0 10 -7 10 -15 0 -17 15 -37 84 -112 27
-29 55 -53 62 -53 7 0 14 -3 16 -7 3 -8 76 -45 113 -58 61 -22 171 -34 214
-23 99 23 131 33 131 40 0 4 9 8 20 8 11 0 20 5 20 10 0 6 6 10 13 10 16 0 87
64 87 77 0 6 14 24 30 41 17 18 30 39 30 47 0 8 5 15 10 15 6 0 10 9 10 19 0
11 5 23 10 26 6 3 10 22 10 41 0 19 5 34 10 34 13 0 13 122 -1 174 -27 101
-41 146 -50 151 -5 3 -15 20 -24 38 -15 31 -79 104 -124 140 -11 9 -43 26 -69
38 -26 11 -55 25 -64 30 -23 12 -169 11 -188 -1z"/>
<path d="M8630 3390 c-8 -5 -34 -10 -58 -10 -23 0 -51 -4 -62 -10 -11 -5 -29
-14 -40 -20 -11 -5 -27 -10 -35 -10 -8 0 -15 -4 -15 -9 0 -5 -9 -13 -20 -16
-28 -9 -160 -140 -160 -160 0 -8 -4 -15 -10 -15 -5 0 -10 -9 -10 -20 0 -11 -4
-20 -10 -20 -5 0 -10 -13 -10 -29 0 -17 -4 -33 -10 -36 -15 -9 -12 -174 3
-215 24 -64 52 -120 59 -120 5 0 8 -5 8 -12 0 -16 51 -68 67 -68 7 0 13 -4 13
-8 0 -12 78 -52 101 -52 10 0 19 -4 19 -10 0 -6 45 -10 114 -10 66 0 117 4
121 10 3 6 13 10 21 10 15 0 66 23 114 51 35 20 130 119 130 135 0 8 4 14 8
14 10 0 46 80 57 125 13 54 17 207 6 218 -6 6 -11 19 -11 28 0 51 -109 188
-172 217 -68 30 -74 32 -173 48 -16 2 -37 0 -45 -6z"/>
<path d="M9575 3190 c-3 -5 -22 -10 -41 -10 -19 0 -34 -4 -34 -10 0 -5 -9 -10
-20 -10 -24 0 -25 -6 -6 -26 20 -19 26 -18 26 6 0 18 7 20 60 20 33 0 60 -4
60 -10 0 -5 13 -10 28 -10 16 0 34 -8 42 -20 8 -11 20 -20 27 -20 23 0 63 -23
63 -36 0 -8 14 -23 30 -36 17 -12 30 -28 30 -35 0 -7 5 -13 10 -13 6 0 10 -9
10 -20 0 -11 3 -20 8 -20 4 0 13 -18 20 -40 14 -48 16 -160 2 -160 -5 0 -10
-9 -10 -20 0 -11 -4 -20 -10 -20 -5 0 -10 -9 -10 -20 0 -11 -4 -20 -10 -20 -5
0 -10 -9 -10 -19 0 -11 -4 -23 -10 -26 -5 -3 -10 -15 -10 -26 0 -10 -4 -19
-10 -19 -5 0 -24 -15 -42 -32 -18 -18 -45 -39 -61 -47 -15 -8 -27 -18 -27 -23
0 -4 -13 -8 -29 -8 -17 0 -33 -4 -36 -10 -3 -5 -25 -10 -49 -10 -86 0 -246
137 -246 212 0 11 -5 29 -12 41 -13 25 -11 160 3 165 12 5 12 42 -1 42 -5 0
-10 14 -10 30 0 17 5 30 10 30 6 0 10 9 10 20 0 13 7 20 19 20 11 0 23 5 26
10 3 6 -1 10 -9 10 -9 0 -16 5 -16 10 0 14 38 12 42 -2 3 -9 10 -7 23 6 19 18
19 18 -3 12 -18 -6 -22 -3 -22 12 0 11 8 22 18 26 9 3 23 9 30 12 7 3 12 -1
12 -10 0 -18 9 -20 30 -6 12 8 11 11 -8 16 -16 5 -21 11 -17 25 9 28 -12 23
-48 -11 -18 -16 -37 -30 -42 -30 -6 0 -18 -12 -27 -27 -9 -16 -28 -40 -42 -55
-14 -15 -26 -34 -26 -43 0 -8 -3 -15 -8 -15 -18 0 -50 -106 -61 -198 -12 -116
22 -246 89 -336 41 -55 123 -126 145 -126 8 0 15 -4 15 -10 0 -5 8 -10 18 -10
10 0 23 -5 30 -12 17 -17 247 -17 264 0 6 6 20 12 30 12 10 0 18 5 18 10 0 6
9 10 20 10 11 0 20 4 20 9 0 5 9 13 21 16 27 9 139 122 139 141 0 8 5 14 10
14 6 0 10 9 10 20 0 11 5 20 10 20 6 0 10 9 10 19 0 11 4 22 9 25 21 13 40
271 22 289 -6 6 -11 21 -11 33 0 23 -58 147 -72 152 -4 2 -8 10 -8 17 0 11
-25 37 -86 85 -39 31 -96 60 -119 60 -13 0 -27 5 -30 10 -3 6 -42 10 -85 10
-43 0 -82 -4 -85 -10z"/>
<path d="M7545 2830 c-3 -5 -17 -10 -30 -10 -27 0 -103 -37 -126 -62 -9 -10
-21 -18 -26 -18 -13 0 -83 -74 -83 -88 0 -7 -3 -12 -8 -12 -4 0 -18 -21 -31
-47 -23 -48 -28 -59 -51 -120 -17 -45 -17 -221 -1 -264 45 -116 71 -156 139
-211 30 -24 98 -58 117 -58 8 0 15 -4 15 -10 0 -6 46 -10 119 -10 69 0 122 4
126 10 3 6 19 10 36 10 19 0 40 11 61 30 17 16 35 30 40 30 16 0 94 86 119
130 13 25 27 47 32 48 4 2 7 14 7 26 0 12 4 26 9 32 9 9 21 76 23 124 1 43
-14 140 -23 146 -5 3 -9 16 -9 30 0 13 -4 24 -10 24 -5 0 -10 7 -10 15 0 17
-18 52 -37 73 -7 7 -13 18 -13 22 0 5 -25 34 -55 64 -52 53 -81 70 -156 94
-44 15 -166 16 -174 2z"/>
</g>
</svg>
