<svg id="Layer_1" data-name="Layer 1" xmlns="http://www.w3.org/2000/svg" xmlns:xlink="http://www.w3.org/1999/xlink" viewBox="0 0 488.85 488.85"><defs><style>.cls-1{fill:#fff;stroke:#231f20;stroke-miterlimit:10;stroke-width:5px;}.cls-2{fill:url(#linear-gradient);}.cls-3{fill:#4b4a4a;}.cls-4{fill:#682f29;}.cls-5{fill:#5a403c;}.cls-6{fill:#bae4ea;}.cls-7{fill:#393939;}.cls-8{fill:#dcefed;}.cls-9{fill:#fefefe;}.cls-10{fill:#f7f6f5;}.cls-11{fill:#1e1d1d;}.cls-12{fill:#898989;}</style><linearGradient id="linear-gradient" x1="204.4" y1="-42.44" x2="206.07" y2="-44.11" gradientTransform="translate(-36695 8011.72) scale(180 179.51)" gradientUnits="userSpaceOnUse"><stop offset="0" stop-color="#1cade4"/><stop offset="1" stop-color="#8bceab"/></linearGradient></defs><circle class="cls-1" cx="244.42" cy="244.42" r="241.92"/><path id="Shape" class="cls-2" d="M344.71,72.1a74.52,74.52,0,0,0-74.58,74.32v82.41c-7.68.52-15.53.84-23.67.84s-16,.33-23.67.79v-84a74.57,74.57,0,0,0-149.13,0v197a74.57,74.57,0,0,0,149.13,0V261c7.68-.52,15.53-.85,23.67-.85s16-.32,23.67-.78v84a74.57,74.57,0,0,0,149.13,0v-197A74.52,74.52,0,0,0,344.71,72.1Zm-196.5,30.45a44,44,0,0,1,44,43.87v87.26a251.23,251.23,0,0,0-63.36,17.92,114.87,114.87,0,0,0-24.57,14.67V146.42A44,44,0,0,1,148.21,102.55Zm44,240.82a44,44,0,1,1-88,0V323.62c0-17.46,13.82-34,37-44.28a217.52,217.52,0,0,1,51-14.92v78.95Zm152.49,43.88a44,44,0,0,1-44-43.88V256.11a250.68,250.68,0,0,0,63.36-17.91,115.35,115.35,0,0,0,24.58-14.67V343.37a44,44,0,0,1-43.93,43.88Zm7-176.91a217.38,217.38,0,0,1-51,14.92V146.42a44,44,0,0,1,88,0v19.8C388.71,183.55,374.89,200.08,351.71,210.34Z" transform="translate(-2.86 -5.78)"/><path class="cls-3" d="M298.82,367.65c-8.63,5.38-17.5,10.26-27.45,12.81-17.69,4.13-35.31,3.19-52.87-.79-2.82-.63-5.6-1.47-8.4-2.21-5.76-2.73-11.55-5.39-17.25-8.22-3-1.51-5.93-3.33-8.89-5L158,342.37a10.11,10.11,0,0,0-.76,2.15c-1.32,10.82-6.82,19.67-13.39,27.92a17.85,17.85,0,0,1-6.49,5.28c-10,4.28-20,4.08-29.55-1.46l1.23-1.31,1.29.38A31.39,31.39,0,0,0,132,377.21l5.09-1.89c5.29-2.49,7.77-7.42,10.53-12.11l2.09-3.22c3.16-4.94,4.29-10.52,5.52-16.14.9-4.12,0-7-3.68-9l-3.41-4.12A68.9,68.9,0,0,1,138.52,309c-2-8.44-2.66-16.72,1.07-24.9a18.77,18.77,0,0,0,1.37-5.28c1.36-10.55,2.94-21.09,3.85-31.68,1.38-16.2,4.54-31.91,11.08-46.85a15.35,15.35,0,0,1,1.69-2.4,3.7,3.7,0,0,1,.15,3.1c-1.23,3.43-2.54,6.83-3.77,10.27-4.65,13-5.93,26.54-7.21,40.14C145.56,264.1,145,277,140.06,289a8.5,8.5,0,0,0-.24,2.45l-.38,1.44c-1.11,8.6,1,16.68,4.05,24.58a41.63,41.63,0,0,0,10,15.63l2.54,2.65,6.85,6.24,1.87,1.66L193.91,366l1.07.83a34.3,34.3,0,0,0,12.51,6.93c16.76,5.53,33.91,8,51.54,6.26,8.47-.85,16.85-2.5,24.39-6.56a254,254,0,0,0,39.9-26.23c10.79-8.76,18.53-19.33,21.83-32.95.32-1.1.64-2.21,1-3.32,2.57-8.78,3.24-17.44-.15-26.3-1.63-4.28-2.22-9-3.07-13.55-.69-3.72-1.06-7.51-1.57-11.27-.12-1-.24-1.92-.37-2.88l-3.15-29c-.22-.79-.44-1.58-.65-2.37a35.54,35.54,0,0,0-.86-4.88c-2.2-6.79-4.54-13.52-6.76-20.3a7.81,7.81,0,0,1,0-2.32c5,7.39,6.86,15.81,9.6,23.89.7,4.25,1.53,8.49,2.06,12.76,1,8.4,1.91,16.83,2.85,25.24,1.23,7.83,1.48,16,3.93,23.4a47.3,47.3,0,0,1,1,26.34c-2.07,9-5.9,17.16-10.49,25.06L336.65,338a16.39,16.39,0,0,0,.5,2.91c4.18,11.63,9.68,22.47,18.74,31.18,1.14,1.09,2.9,1.89,2.11,4a6.46,6.46,0,0,1-1.25-.66c-9.26-7.8-15.28-17.82-19.73-28.9-.76-1.9-1.58-3.78-2.52-6-1.33,1.09-2.14,1.64-2.82,2.32a140.17,140.17,0,0,1-23,18.23C305.37,363.16,302.11,365.44,298.82,367.65Z" transform="translate(-2.86 -5.78)"/><path class="cls-3" d="M272.26,116.55a17.84,17.84,0,0,0,3.53-1.83c2.06-1.72,3.57-1,4.11,1.12a19.17,19.17,0,0,1,.56,7.22c-.3,2.23-1.56,4.33-2.51,6.78L303,124.13h12.24c-3.48,5.68-6.52,10.67-10.12,16.55,11.14-1.66,20.24-6.06,29.91-8.93.89,7.38.08,13.89-4,19.59-1.53,2.13-1,3.93-.34,6,3.49,10.92,6.9,21.87,10.33,32.82q3.42,10.9,6.82,21.83L351.44,224c-2.93-.15-3,2.14-3.52,4.09-.25-1.75-.42-3.51-.77-5.24a22,22,0,0,0-1.07-3c-.2-2.47.05-5.07-.65-7.38q-8.56-28.33-17.48-56.56a4.73,4.73,0,0,1,.78-4.94c3.53-4.68,4.72-10.05,4.17-16.14-10.6,3.32-20.5,7.84-32,8.83,2.37-4.12,4.26-7.39,6.15-10.66l.26-.39,4.17-6.19A79.26,79.26,0,0,0,287,130.14l-2.32.73-4.83,1.63L277,133.91l-9.55,4.32c3-3.82,5.79-7.37,8.58-10.92.28-.43.56-.86.85-1.29,1.71-2.91,2.6-5.87.77-9.51-12.1,6.16-23.8,12.27-36.6,15.78l-1.28-1.3,3.33-8.82.59-1.13c.33-1,.42-2-1-1.89a44,44,0,0,0-4.61,1l-2.11.61a78.08,78.08,0,0,0-38.14,21.08c.86-4.76,1.59-8.77,2.32-12.79l1.13-2.85-.82-.51-4.61,2.25a29.52,29.52,0,0,0-5,2,108.6,108.6,0,0,0-31.08,29c-7.4,10.33-12.72,21.7-17.72,33.27l-2.12-.12c4.16-8.62,7.86-17.5,12.57-25.82,7.9-13.94,18.84-25.32,31.74-34.81,6.29-3.94,12.78-7.4,20.73-9.2-1,3.89-1.78,7.26-2.61,10.64l1,.74,8.85-6c7.52-3,14.95-6.28,22.57-9,4.08-1.45,8.5-1.93,13.3-3l-4.85,13.47C254.18,126,263.29,121.42,272.26,116.55Z" transform="translate(-2.86 -5.78)"/><path class="cls-4" d="M347.92,228.06c.49-1.95.59-4.24,3.52-4.09l7,18.19c.68,2.05,1.32,4.11,2,6.15q3.77,10.8,7.58,21.58c.28,2.25.16,4.65.91,6.73,2.69,7.51,5.66,14.91,8.55,22.35,1.83,4.72,3.71,9.43,5.55,14.15.36.91,1,1.89.88,2.77-.45,3.55,3.66,4.75,4,7.88,0,.15,1.22.17,1.88.25a2,2,0,0,1,.26,1c.37,2.42.05,5.29,1.26,7.19,3,4.78,4.44,10,5.49,15.38.9,4.67.23,9.35-.16,14-.29,3.54-1.72,7-2.65,10.46l-2,0c-.7-1.51-1.46-3-2.08-4.52-4.85-12-9.81-23.94-14.48-36-6.35-16.38-12.51-32.83-18.64-49.29-1.44-3.85-2.45-7.85-3.65-11.78V270q-.56-2.61-1.09-5.22c-.14-.95-.27-1.91-.41-2.86-.19-.68-.39-1.37-.58-2.06l0,0c-.2-1.95-.42-3.91-.62-5.86Z" transform="translate(-2.86 -5.78)"/><path class="cls-5" d="M121.93,256q1.6-5,3.19-9.92c2.45,4.56-1.15,8.88-.53,13.36-4,3.32-2.28,8.68-4.54,12.67a12.44,12.44,0,0,0-1.94,6c.17,5.44-1.73,10.52-3.49,15.26-1.51,4.08-2,8.06-2.91,12.1-.81,3.42-1.27,7.08-2.4,10.23-2,5.48-2.84,11.24-4.93,16.65-.76,2-.76,4.21-1.5,6.18-.28.73-1.71,1-2.61,1.49q5.06-19.35,10.1-38.71c.45-1.75.87-3.51,1.3-5.26Q116.31,278,121,260C121.27,258.65,121.6,257.31,121.93,256Z" transform="translate(-2.86 -5.78)"/><path class="cls-6" d="M121.93,256c-.33,1.34-.66,2.68-1,4l-2-4Z" transform="translate(-2.86 -5.78)"/><path class="cls-5" d="M394,372c.93-3.48,2.36-6.92,2.65-10.46.39-4.61,1.06-9.29.16-14-1-5.42-2.46-10.6-5.49-15.38-1.21-1.9-.89-4.77-1.26-7.19l1.58,1.25c1.82,4.74,3.7,9.45,5.45,14.21a46.13,46.13,0,0,1,2.78,19c-.31,4.67-1.46,9.08-4.86,12.58Z" transform="translate(-2.86 -5.78)"/><path class="cls-7" d="M394,372l1,0c-3.76,5.68-9.75,7.58-15.81,9.36C373.93,383,369,381.64,364,380l1-1.3h1l3,0,11-.07,1.46-.51.28,0L382,378c4-.9,7.63-2.44,10-6Z" transform="translate(-2.86 -5.78)"/><path class="cls-8" d="M391.61,326.22,390,325a2,2,0,0,0-.26-1c0-.62-.11-1.23-.16-1.85L392,322C391.36,323.35,394.43,325,391.61,326.22Z" transform="translate(-2.86 -5.78)"/><path class="cls-8" d="M392,320c-1.22-.27-3-.28-.92-2C391.35,318.68,391.66,319.35,392,320Z" transform="translate(-2.86 -5.78)"/><path class="cls-9" d="M279.83,132.5l4.83-1.63,2.32-.73a79.26,79.26,0,0,1,24.45-3.72l-4.17,6.19L306,131.24l-.77,1L307,133c-1.89,3.27-3.78,6.54-6.15,10.66,11.55-1,21.45-5.51,32-8.83.55,6.09-.64,11.46-4.17,16.14a4.73,4.73,0,0,0-.78,4.94q8.88,28.25,17.48,56.56c.7,2.31.45,4.91.65,7.38-.49.37-1.25,1.15-1.42,1-2.28-1.53-3.73.74-5.57,1.11-2.74-8.08-4.62-16.5-9.6-23.89a7.81,7.81,0,0,0,0,2.32c2.22,6.78,4.56,13.51,6.76,20.3a35.54,35.54,0,0,1,.86,4.88c.21.79.43,1.58.65,2.37l3.15,29-1.87,1.66,2.24,1.22c.51,3.76.88,7.55,1.57,11.27.85,4.56,1.44,9.27,3.07,13.55,3.39,8.86,2.72,17.52.15,26.3-3.5.19-1.19,2.05-1,3.32-3.3,13.62-11,24.19-21.83,32.95a254,254,0,0,1-39.9,26.23c-7.54,4.06-15.92,5.71-24.39,6.56-17.63,1.76-34.78-.73-51.54-6.26A34.3,34.3,0,0,1,195,366.87l-1.07-.83-29.18-22.35c.51-1.84.23-2.79-1.87-1.66L156,335.79c.11-1.8-.26-3.14-2.54-2.65a41.63,41.63,0,0,1-10-15.63c-3-7.9-5.16-16-4.05-24.58l.38-1.44a8.5,8.5,0,0,1,.24-2.45c5-12.08,5.5-24.94,6.69-37.67,1.28-13.6,2.56-27.17,7.21-40.14,1.23-3.44,2.54-6.84,3.77-10.27a3.7,3.7,0,0,0-.15-3.1,15.35,15.35,0,0,0-1.69,2.4c-6.54,14.94-9.7,30.65-11.08,46.85-.91,10.59-2.49,21.13-3.85,31.68a18.77,18.77,0,0,1-1.37,5.28c-3.73,8.18-3,16.46-1.07,24.9a68.9,68.9,0,0,0,9.63,21.72c-1.24,3.35-1,3.6,3.41,4.12,3.64,2,4.58,4.92,3.68,9-1.23,5.62-2.36,11.2-5.52,16.14l-3.6,1.23,1.51,2c-2.76,4.69-5.24,9.62-10.53,12.11l-1-2c-1.07,1.6-4.2,1-4.1,3.87a31.39,31.39,0,0,1-21.64-1.88c.54-.91,1.48-1.79,1.54-2.73.19-2.63,0-5.29,0-7.94A.44.44,0,0,1,112,364c2.8-.3,3.77-2,4.09-4.67.16-1.39.88-3.14,2.92-1.32.35.31,1,.26,1.56.37,0-.62.38-1.44.1-1.82-3-4-1.93-8.45-1-12.72.4-1.94-.59-5,2.89-5.44,0,0,.17-1.71-.23-2a13.74,13.74,0,0,0-3-1.53l.76-2.83c.63-.4,1.63-.68,1.81-1.23a48.62,48.62,0,0,0,1.17-5.25c.29-1.41.9-2.83,2.56-2.15,2.55,1,2.51-.53,2.37-2.09-.17-1.94-.91-3.87-.87-5.78.12-5.25.53-10.48.82-15.72l.47-2.84.46-1.39c.21-1.24.42-2.48.64-3.73.82-.47,2.07-.75,2.41-1.47,1.39-2.9.05-5.9,0-8.87.1-.83.21-1.67.31-2.5l.71-3.31.3-2.67,1.58-1.14-1.33-1,.46-1.83.16-1,.1-1,.6-2.63.38-4.37.69-3.6c0-1.49-.11-3-.16-4.48l.4.13c.53-.59,1.53-1.19,1.52-1.76a55.28,55.28,0,0,0-.72-5.85c0-1.47,0-2.94,0-4.41l.06-1c-.2-1.68-.39-3.35-.59-5V232l.48-4c2.78-.56,4.18-2.65,2.81-3.18-2.53-1-2.21-3.52-3.78-4.84a2.28,2.28,0,0,1-.73-.12c.89-4.84,1.81-9.67,2.63-14.52A40.31,40.31,0,0,0,138,201c2-1.26,3.78-5.23,4-8.83,5-11.57,10.32-22.94,17.72-33.27a108.6,108.6,0,0,1,31.08-29,29.52,29.52,0,0,1,5-2l4.3,1.11c-.73,4-1.46,8-2.32,12.79a78.08,78.08,0,0,1,38.14-21.08l1.37,1.07c.25-.56.5-1.12.74-1.68a44,44,0,0,1,4.61-1c1.46-.15,1.37.88,1,1.89l-.59,1.13L239.73,131l-1.5,1.41,1.35,1.36,1.43-1.47c12.8-3.51,24.5-9.62,36.6-15.78,1.83,3.64.94,6.6-.77,9.51-.29.43-.57.86-.85,1.29-2.79,3.55-5.57,7.1-8.58,10.92l9.55-4.32,2,1.09a1.65,1.65,0,0,0,.19.45c.06.07.22.06.34.08L279,135C279.28,134.17,279.56,133.33,279.83,132.5ZM174.52,320.24l-.06.28.29,0c-1,3.55-1,3.55,3.59,3.38a.61.61,0,0,1,.72.44l1.95-.18-.24-3.55c.41-1.72.85-3.42,1.22-5.15a14.3,14.3,0,0,1,.44-2.83c2.06-4.54,2.1-4.53-2.78-4.6h-2.46c-.31-1.67-.63-3.34-.95-5l-.21-2a.41.41,0,0,1-.17-.63q-.36-3.67-.71-7.35l-.84-8.06c.12-.1.36-.24.35-.28a6.68,6.68,0,0,0-.41-.67c0-1-.07-2-.1-3l-.23-1c-.15-2.45-.31-4.89-.45-7.34-.17-3-.67-3.42-3.15-2-2.85,1.62-5.51,3.57-8.25,5.38l-1,1.09a1,1,0,0,1-.22.9,6.29,6.29,0,0,0,.1,7l.41,2.89c-2.11,2.29-1.93,3.2.79,4l0,0A45.47,45.47,0,0,0,163.36,306c.73,2.89,1.9,4.59,4.87,4.9l-.07-.08L169,312l0,0c.13,1.73-.2,3.17-2,4.08-.36.18-.27,1.26-.38,1.92a5.55,5.55,0,0,0,2.05.27,25.1,25.1,0,0,0,3.34-1.35h0C172.59,318.26,170.56,321.5,174.52,320.24Zm153.23-20.46-.06,0c.73-.2,1.73-.16,2.15-.63,2.93-3.33,2.74-7.63,3-11.62.21-3.06-.62-6.18-.83-9.29-.09-1.4-.51-2.21-2-2.23l0,0c-.73-4.11-1.59-4.71-7-5l-4.6-.86c-6.05,2.35-5.67,2.3-4.79,8.41a76.87,76.87,0,0,1,.66,16.53c-.27,3.52-1,6.84.79,10.1-.1.95-.2,1.9-.31,2.84l-.54,1.22,0,0a22.88,22.88,0,0,0-4.24-1,2.47,2.47,0,0,0-1.9,1.44c-.27,1-.29,2.63,1.63,1.92,2.67-1,2.49,1,2.12,2.26s-1.78,2.08-2.4,3.27c-.94,1.83-1.59,3.8-2.36,5.71l3.82,1.21,0,.07,2,.26.89-.42c5-.1,5-.1,5.08-5.14a.73.73,0,0,1,.37-.83L320,317l1.75-2.13c4.38-1.84,5.57-4.39,4.2-9a.86.86,0,0,1,.22-.9l.66-1.5a.4.4,0,0,1,.25-.49C327.3,301.92,327.53,300.85,327.75,299.78ZM305,336.27l1.29-2.65a7.13,7.13,0,0,0-2.67-.23c-1.55.5-3,1.42-4.48,2-3.91,1.6-7.86,3.13-11.8,4.69l-1.28.53-10.08,1-1.6-.4c-3.67-.82-7.58-1.09-10.95-2.58-11.22-5-22.27-5.24-33.55-.36A33.83,33.83,0,0,1,210,340.66l-1.49-.48-2.51-.52-1.17-.58c-5.07-1.92-10.12-3.9-15.23-5.68-.88-.3-2.06.26-3.11.43.6.76,1,1.91,1.83,2.23,9.71,4.05,19.23,8.85,30.15,8.75l1.51-.41c4.43-1.35,8.88-2.61,13.27-4.07,7.08-2.36,14.22-3.3,21.51-1.27a61.49,61.49,0,0,1,7.5,2.59c11,4.71,21.8,4.79,32.54-.83,2.92-1.53,6.07-2.59,9.11-3.86Zm-62.26-52.72v.25c-4.65,0-9.33-.27-13.95.07-5.06.37-6.16,2.93-2.84,6.75a118.8,118.8,0,0,0,11.26,11.29c3.71,3.25,8,2.87,11.63-.57,3.25-3.1,6.44-6.26,9.5-9.54,1.32-1.4,2.84-3,1.68-5.27a5.32,5.32,0,0,0-5.3-3C250.7,283.59,246.71,283.55,242.72,283.55Zm72-39.44a12.33,12.33,0,0,0-1.62-.72c-1.28-.18-2.56-.43-3.85-.49-12-.57-23.59,1.68-35.1,4.62-2.41.61-4.82,1.26-7.15,2.1-.86.31-1.49,1.25-2.23,1.9a21.63,21.63,0,0,0,2.61.46c.46,0,.92-.35,1.4-.48,9.75-2.71,19.5-5.37,29.74-5.48,4.28-.05,8.56-.44,12.83-.77A18,18,0,0,0,314.75,244.11Zm-98.22,8.69a18.67,18.67,0,0,0-2.73-1.94,122.42,122.42,0,0,0-30-8.93c-5.15-.84-10.36-1.32-15.55-1.91a1.42,1.42,0,0,0-1.17.58c-.16.34,0,1.16.22,1.29a7.69,7.69,0,0,0,3.07,1.1c14.36.28,27.89,4.15,41.09,9.42a18.68,18.68,0,0,0,2.77,1.12C214.72,253.64,215.33,253.21,216.53,252.8Zm16.89,18.43.06,1.17c3.28-.15,6.58-.49,9.86-.4s6.76.62,10.13.95C246.93,269.36,240.22,269.35,233.42,271.23Zm58.17,91.34c-1-.71-1.57-1.31-2.18-1.41-.37-.05-1.27.78-1.21,1,.15.62.65,1.48,1.16,1.6S290.52,363.21,291.59,362.57Zm13.57-98.95c.42-1.32.81-1.89.68-2.32s-.77-.67-1.19-1c-.2.4-.58.83-.55,1.2A8.64,8.64,0,0,0,305.16,263.62Zm-2.31-132.87a4.8,4.8,0,0,0-1.13-.48c-.1,0-.47.64-.41.71a5.13,5.13,0,0,0,1,.72Zm-36.3,8.74c-.11-.12-.24-.35-.32-.33a5.16,5.16,0,0,0-.81.34c.11.11.25.34.33.33A4.69,4.69,0,0,0,266.55,139.49Z" transform="translate(-2.86 -5.78)"/><path class="cls-9" d="M382,378l-.22.16-.28,0-1.46.51-11,.07c-.26-.83-.53-1.66-.79-2.5-.74.82-1.48,1.65-2.23,2.47h-1c-1.23-1.18-2.43-2.38-3.73-3.46-.11-.1-.91.61-1.38.95l-2-.23.08.1c.79-2.12-1-2.92-2.11-4-9.06-8.71-14.56-19.55-18.74-31.18a16.39,16.39,0,0,1-.5-2.91l3.21-1.12-1.45-2c4.59-7.9,8.42-16.1,10.49-25.06a47.3,47.3,0,0,0-1-26.34c-2.45-7.42-2.7-15.57-3.93-23.4,2.36-1.13,4.74-.81,7.12-.08l0,0c.19.69.39,1.38.58,2.06.14.95.27,1.91.41,2.86.28,1.76-1.07,3.85,1.09,5.22v.37c-.13,2,.25,4.18-.48,5.91a6,6,0,0,0,1.49,7.23c1.59,1.56,1.26,2.86,1,4.78-.36,2.79-1.26,6.09,1.93,8.19,3.92,2.58,4.81,6,2.87,10.23-.86,1.89-1.74,3.9-.16,6.32,1.08-1.51,2-2.81,2.8-3.93,1.95,2.54,4.16,4.47,5.09,6.89,1.27,3.31,1.47,7,2.32,10.52a16.91,16.91,0,0,0,2,5.34c1.05,1.55,2.34,2.46.42,4.42-1.3,1.32-.3,3.13,1.28,3.54,4,1,3.31,4.05,3.17,6.78-.08,1.62-.85,3.2-.9,4.82-.14,4.43-.15,4.84,4.11,4.57,2.06-.13,3.08.21,4.16,2.75,1.73,4,.17,7.73.62,11.53a2.06,2.06,0,0,1-.69,1.74C381.36,373.28,382.08,375.79,382,378Z" transform="translate(-2.86 -5.78)"/><path class="cls-4" d="M136.36,232V234c-.29.14-.82.28-.82.42.07,4.54.19,9.07.31,13.61l.22,4-.4-.13c-.44.21-1.23.35-1.28.63-.84,4.82-1.65,9.66-2.36,14.5-.73,5-.83,10.2-2.16,15a44.27,44.27,0,0,0-1.78,14.11,5.45,5.45,0,0,0,.3.76c-.16.95-.31,1.89-.47,2.84-.8,2.84-1.7,5.65-2.38,8.52-1.88,7.89-3.66,15.8-5.48,23.7l-.76,2.83Q115.67,349.41,112,364a.44.44,0,0,0-.16.66q-1.39,5.14-2.8,10.29l-1.23,1.31-7-6.19c.25-.65.77-1.34.68-1.94-.42-2.89-1.3-5.75-1.48-8.64-.32-5-.63-10.07.83-15,.2-.67-.62-1.65-1-2.48l.36-2c.9-.48,2.33-.76,2.61-1.49.74-2,.74-4.22,1.5-6.18,2.09-5.41,3-11.17,4.93-16.65,1.13-3.15,1.59-6.81,2.4-10.23,1-4,1.4-8,2.91-12.1,1.76-4.74,3.66-9.82,3.49-15.26a12.44,12.44,0,0,1,1.94-6c2.26-4,.57-9.35,4.54-12.67-.62-4.48,3-8.8.53-13.36l.61-2c1.22-.06,2.15-.25,2.32-1.87.25-2.58.16-5.51,1.4-7.59,1.77-3,2.16-6.2,2.38-9.3s1.54-3.56,4-3.3q.18,3,.35,5.94C134.64,229.37,134.17,230.76,136.36,232Z" transform="translate(-2.86 -5.78)"/><path class="cls-10" d="M351.12,259.92c-2.38-.73-4.76-1.05-7.12.08-.94-8.41-1.81-16.84-2.85-25.24-.53-4.27-1.36-8.51-2.06-12.76,1.84-.37,3.29-2.64,5.57-1.11.17.11.93-.67,1.42-1a22,22,0,0,1,1.07,3c.35,1.73.52,3.49.77,5.24l2.58,26C350.7,256,350.92,258,351.12,259.92Z" transform="translate(-2.86 -5.78)"/><path class="cls-10" d="M109.08,375q1.41-5.15,2.8-10.29c0,2.65.22,5.31,0,7.94-.06.94-1,1.82-1.54,2.73Z" transform="translate(-2.86 -5.78)"/><path class="cls-10" d="M132,377.21c-.1-2.84,3-2.27,4.1-3.87l1,2Z" transform="translate(-2.86 -5.78)"/><path class="cls-10" d="M147.63,363.21l-1.51-2,3.6-1.23Z" transform="translate(-2.86 -5.78)"/><path class="cls-10" d="M151.56,334.81c-4.44-.52-4.65-.77-3.41-4.12Z" transform="translate(-2.86 -5.78)"/><path class="cls-10" d="M338.41,334.8l1.45,2L336.65,338Z" transform="translate(-2.86 -5.78)"/><path class="cls-10" d="M341.31,259.88l-2.24-1.22,1.87-1.66Z" transform="translate(-2.86 -5.78)"/><path class="cls-10" d="M345.15,314.32c-.24-1.27-2.55-3.13,1-3.32C345.79,312.11,345.47,313.22,345.15,314.32Z" transform="translate(-2.86 -5.78)"/><path class="cls-10" d="M153.47,333.14c2.28-.49,2.65.85,2.54,2.65Z" transform="translate(-2.86 -5.78)"/><path class="cls-10" d="M162.86,342c2.1-1.13,2.38-.18,1.87,1.66Z" transform="translate(-2.86 -5.78)"/><path class="cls-10" d="M337.79,228l-.65-2.37Z" transform="translate(-2.86 -5.78)"/><path class="cls-10" d="M139.82,291.49l-.38,1.44Z" transform="translate(-2.86 -5.78)"/><path class="cls-10" d="M193.91,366l1.07.83Z" transform="translate(-2.86 -5.78)"/><path class="cls-10" d="M142,192.16c-.21,3.6-2,7.57-4,8.83l-2,1,3.9-9.93Z" transform="translate(-2.86 -5.78)"/><path class="cls-10" d="M200.07,129l-4.3-1.11,4.61-2.25.82.51Z" transform="translate(-2.86 -5.78)"/><path class="cls-10" d="M241,132.29l-1.43,1.47-1.35-1.36,1.5-1.41Z" transform="translate(-2.86 -5.78)"/><path class="cls-10" d="M279.83,132.5c-.27.83-.55,1.67-.83,2.5h0l-2-1.09Z" transform="translate(-2.86 -5.78)"/><path class="cls-10" d="M307,133l-1.73-.74.77-1,1.22,1.37Z" transform="translate(-2.86 -5.78)"/><path class="cls-10" d="M238,120.12c-.24.56-.49,1.12-.74,1.68l-1.37-1.07Z" transform="translate(-2.86 -5.78)"/><path class="cls-10" d="M287,130.14l-2.32.73Z" transform="translate(-2.86 -5.78)"/><path class="cls-10" d="M243.06,122.17l.59-1.13Z" transform="translate(-2.86 -5.78)"/><path class="cls-10" d="M276,127.31c.28-.43.56-.86.85-1.29C276.55,126.45,276.27,126.88,276,127.31Z" transform="translate(-2.86 -5.78)"/><path class="cls-5" d="M99.91,342c.35.83,1.17,1.81,1,2.48-1.46,5-1.15,10-.83,15,.18,2.89,1.06,5.75,1.48,8.64.09.6-.43,1.29-.68,1.94-3.94-5.18-4.33-11.2-3.62-17.26C97.66,349.14,99,345.58,99.91,342Z" transform="translate(-2.86 -5.78)"/><path class="cls-10" d="M382,378c.08-2.24-.64-4.75,2.25-6a2.06,2.06,0,0,0,.69-1.74c-.45-3.8,1.11-7.51-.62-11.53-1.08-2.54-2.1-2.88-4.16-2.75-4.26.27-4.25-.14-4.11-4.57.05-1.62.82-3.2.9-4.82.14-2.73.82-5.75-3.17-6.78-1.58-.41-2.58-2.22-1.28-3.54,1.92-2,.63-2.87-.42-4.42a16.91,16.91,0,0,1-2-5.34c-.85-3.49-1.05-7.21-2.32-10.52-.93-2.42-3.14-4.35-5.09-6.89-.79,1.12-1.72,2.42-2.8,3.93-1.58-2.42-.7-4.43.16-6.32,1.94-4.27,1.05-7.65-2.87-10.23-3.19-2.1-2.29-5.4-1.93-8.19.24-1.92.57-3.22-1-4.78a6,6,0,0,1-1.49-7.23c.73-1.73.35-3.93.48-5.91,1.2,3.93,2.21,7.93,3.65,11.78,6.13,16.46,12.29,32.91,18.64,49.29,4.67,12.06,9.63,24,14.48,36,.62,1.53,1.38,3,2.08,4.52C389.63,375.59,386,377.13,382,378Z" transform="translate(-2.86 -5.78)"/><path class="cls-5" d="M389.61,322.17c.05.62.11,1.23.16,1.85-.66-.08-1.87-.1-1.88-.25-.3-3.13-4.41-4.33-4-7.88.11-.88-.52-1.86-.88-2.77-1.84-4.72-3.72-9.43-5.55-14.15-2.89-7.44-5.86-14.84-8.55-22.35-.75-2.08-.63-4.48-.91-6.73q5,13,10,25.93C381.49,304.78,384.12,314.1,389.61,322.17Z" transform="translate(-2.86 -5.78)"/><path class="cls-10" d="M353.17,270c-2.16-1.37-.81-3.46-1.09-5.22Q352.62,267.42,353.17,270Z" transform="translate(-2.86 -5.78)"/><path class="cls-10" d="M351.67,262c-.19-.68-.39-1.37-.58-2.06C351.28,260.58,351.48,261.27,351.67,262Z" transform="translate(-2.86 -5.78)"/><path class="cls-10" d="M359.9,376.19c.47-.34,1.27-1.05,1.38-.95,1.3,1.08,2.5,2.28,3.73,3.46l-1,1.3c-2.11-.38-4.14-.87-5-3.2Z" transform="translate(-2.86 -5.78)"/><path class="cls-3" d="M359.9,376.19l-.9.61-1.08-.84Z" transform="translate(-2.86 -5.78)"/><path class="cls-5" d="M135.82,222c-2.45-.26-3.76.2-4,3.3s-.61,6.31-2.38,9.3c-1.24,2.08-1.15,5-1.4,7.59-.17,1.62-1.1,1.81-2.32,1.87L132.37,218l2.77,1.91a2.28,2.28,0,0,0,.73.12Z" transform="translate(-2.86 -5.78)"/><path class="cls-3" d="M135.14,219.92,132.37,218,136,202l2-1a40.31,40.31,0,0,1-.25,4.41C137,210.25,136,215.08,135.14,219.92Z" transform="translate(-2.86 -5.78)"/><path class="cls-10" d="M366,378.71c.75-.82,1.49-1.65,2.23-2.47.26.84.53,1.67.79,2.5Z" transform="translate(-2.86 -5.78)"/><path class="cls-10" d="M380,378.67l1.46-.51Z" transform="translate(-2.86 -5.78)"/><path class="cls-4" d="M242.72,283.55c4,0,8,0,12,0a5.32,5.32,0,0,1,5.3,3c1.16,2.3-.36,3.87-1.68,5.27-3.06,3.28-6.25,6.44-9.5,9.54-3.6,3.44-7.92,3.82-11.63.57a118.8,118.8,0,0,1-11.26-11.29c-3.32-3.82-2.22-6.38,2.84-6.75,4.62-.34,9.3-.07,13.95-.07Z" transform="translate(-2.86 -5.78)"/><path class="cls-4" d="M327.07,303a.4.4,0,0,0-.25.49l-.66,1.5a.86.86,0,0,0-.22.9l-4.2,9L320,317l-.71.93a.73.73,0,0,0-.37.83c-1.69,1.72-3.39,3.43-5.08,5.14l-.89.42-2-.26,0-.07c.34-1.59.66-3.19,1-4.78.76-3.34,1.54-6.69,2.31-10l0,0,.54-1.22c.11-.94.21-1.89.31-2.84.93-5.61,2.17-11.18,2.7-16.83.56-6,.45-12.14.64-18.21l4.6.86,7,5,0,0c.34,1.76,1.18,3.58.93,5.25-.9,6.2-2.16,12.35-3.28,18.52l.06,0C327.53,300.85,327.3,301.92,327.07,303Z" transform="translate(-2.86 -5.78)"/><path class="cls-4" d="M176.24,303c.32,1.68.64,3.35.95,5q1.8,6.3,3.58,12.59l.24,3.55-1.95.18a.61.61,0,0,0-.72-.44l-3.59-3.38-.29,0,.06-.28L172.05,317h0q-1.53-2.46-3.05-4.92l0,0-.82-1.21.07.08-6.15-19,0,0-.79-4c-.14-1-.27-1.93-.41-2.89,0-2.32-.07-4.65-.1-7a1,1,0,0,0,.22-.9l1-1.09c2.74-1.81,5.4-3.76,8.25-5.38,2.48-1.41,3-1,3.15,2,.14,2.45.3,4.89.45,7.34l.23,1,.1,3,.06,1,.84,8.06.71,7.35a.41.41,0,0,0,.17.63Z" transform="translate(-2.86 -5.78)"/><path class="cls-11" d="M287.32,340.12c3.94-1.56,7.89-3.09,11.8-4.69,1.52-.62,2.93-1.54,4.48-2a7.13,7.13,0,0,1,2.67.23L305,336.27l-1.1.69c-3,1.27-6.19,2.33-9.11,3.86-10.74,5.62-21.55,5.54-32.54.83a61.49,61.49,0,0,0-7.5-2.59c-7.29-2-14.43-1.09-21.51,1.27-4.39,1.46-8.84,2.72-13.27,4.07l-1.51.41c-10.92.1-20.44-4.7-30.15-8.75-.78-.32-1.23-1.47-1.83-2.23,1-.17,2.23-.73,3.11-.43,5.11,1.78,10.16,3.76,15.23,5.68l1.17.58,2.51.52,1.49.48a33.83,33.83,0,0,0,19.89-2.36c11.28-4.88,22.33-4.62,33.55.36,3.37,1.49,7.28,1.76,10.95,2.58l1.6.4,10.08-1Z" transform="translate(-2.86 -5.78)"/><path class="cls-7" d="M314.75,244.11a18,18,0,0,1-3.37,1.14c-4.27.33-8.55.72-12.83.77-10.24.11-20,2.77-29.74,5.48-.48.13-.94.5-1.4.48a21.63,21.63,0,0,1-2.61-.46c.74-.65,1.37-1.59,2.23-1.9,2.33-.84,4.74-1.49,7.15-2.1,11.51-2.94,23.12-5.19,35.1-4.62,1.29.06,2.57.31,3.85.49A12.33,12.33,0,0,1,314.75,244.11Z" transform="translate(-2.86 -5.78)"/><path class="cls-7" d="M216.53,252.8c-1.2.41-1.81.84-2.29.73a18.68,18.68,0,0,1-2.77-1.12c-13.2-5.27-26.73-9.14-41.09-9.42a7.69,7.69,0,0,1-3.07-1.1c-.25-.13-.38-.95-.22-1.29a1.42,1.42,0,0,1,1.17-.58c5.19.59,10.4,1.07,15.55,1.91a122.42,122.42,0,0,1,30,8.93A18.67,18.67,0,0,1,216.53,252.8Z" transform="translate(-2.86 -5.78)"/><path class="cls-10" d="M318.41,270.14c-.19,6.07-.08,12.17-.64,18.21-.53,5.65-1.77,11.22-2.7,16.83-1.76-3.26-1.06-6.58-.79-10.1a76.87,76.87,0,0,0-.66-16.53C312.74,272.44,312.36,272.49,318.41,270.14Z" transform="translate(-2.86 -5.78)"/><path class="cls-10" d="M112,364q3.63-14.58,7.25-29.17a13.74,13.74,0,0,1,3,1.53c.4.33.27,2,.23,2-3.48.48-2.49,3.5-2.89,5.44-.89,4.27-1.92,8.68,1,12.72.28.38,0,1.2-.1,1.82-.53-.11-1.21-.06-1.56-.37-2-1.82-2.76-.07-2.92,1.32C115.81,362,114.84,363.7,112,364Z" transform="translate(-2.86 -5.78)"/><path class="cls-10" d="M120.05,332c1.82-7.9,3.6-15.81,5.48-23.7.68-2.87,1.58-5.68,2.38-8.52-.29,5.24-.7,10.47-.82,15.72,0,1.91.7,3.84.87,5.78.14,1.56.18,3.13-2.37,2.09-1.66-.68-2.27.74-2.56,2.15a48.62,48.62,0,0,1-1.17,5.25C121.68,331.32,120.68,331.6,120.05,332Z" transform="translate(-2.86 -5.78)"/><path class="cls-5" d="M128.08,296.18a44.27,44.27,0,0,1,1.78-14.11c1.33-4.84,1.43-10,2.16-15,.71-4.84,1.52-9.68,2.36-14.5.05-.28.84-.42,1.28-.63.05,1.49.11,3,.16,4.48l-.69,3.6-.38,4.37-.6,2.63-.1,1-.16,1c-.15.61-.3,1.22-.46,1.83s-.17,1.44-.25,2.16l-.3,2.67c-.24,1.1-.47,2.2-.71,3.31-.1.83-.21,1.67-.31,2.5q-1.2,5.17-2.38,10.34c-.22,1.25-.43,2.49-.64,3.73A3.08,3.08,0,0,0,128.08,296.18Z" transform="translate(-2.86 -5.78)"/><path class="cls-10" d="M314.27,309.21c-.77,3.34-1.55,6.69-2.31,10-.36,1.59-.68,3.19-1,4.78l-3.82-1.21c.77-1.91,1.42-3.88,2.36-5.71.62-1.19,2-2.05,2.4-3.27s.55-3.24-2.12-2.26c-1.92.71-1.9-.91-1.63-1.92a2.47,2.47,0,0,1,1.9-1.44A22.88,22.88,0,0,1,314.27,309.21Z" transform="translate(-2.86 -5.78)"/><path class="cls-10" d="M327.69,299.75c1.12-6.17,2.38-12.32,3.28-18.52.25-1.67-.59-3.49-.93-5.25,1.48,0,1.9.83,2,2.23.21,3.11,1,6.23.83,9.29-.28,4-.09,8.29-3,11.62C329.42,299.59,328.42,299.55,327.69,299.75Z" transform="translate(-2.86 -5.78)"/><path class="cls-10" d="M180.77,320.58,177.19,308h2.46c4.88.07,4.84.06,2.78,4.6a14.3,14.3,0,0,0-.44,2.83C181.62,317.16,181.18,318.86,180.77,320.58Z" transform="translate(-2.86 -5.78)"/><path class="cls-10" d="M162.08,291.9l6.15,19c-3-.31-4.14-2-4.87-4.9A45.47,45.47,0,0,1,162.08,291.9Z" transform="translate(-2.86 -5.78)"/><path class="cls-12" d="M233.42,271.23c6.8-1.88,13.51-1.87,20.05,1.72-3.37-.33-6.74-.85-10.13-.95s-6.58.25-9.86.4Z" transform="translate(-2.86 -5.78)"/><path class="cls-5" d="M135.84,248c-.12-4.54-.24-9.07-.31-13.61,0-.14.53-.28.82-.42.2,1.68.39,3.35.59,5l-.06,1c0,1.47,0,2.94,0,4.41Z" transform="translate(-2.86 -5.78)"/><path class="cls-10" d="M135.82,222l.05-2c1.57,1.32,1.25,3.88,3.78,4.84,1.37.53,0,2.62-2.81,3.18a2.55,2.55,0,0,1-.67-.12Q136,225,135.82,222Z" transform="translate(-2.86 -5.78)"/><path class="cls-10" d="M321.74,314.9l4.2-9C327.31,310.51,326.12,313.06,321.74,314.9Z" transform="translate(-2.86 -5.78)"/><path class="cls-10" d="M169,312q1.51,2.46,3.05,4.92a25.1,25.1,0,0,1-3.34,1.35,5.55,5.55,0,0,1-2.05-.27c.11-.66,0-1.74.38-1.92C168.8,315.2,169.13,313.76,169,312Z" transform="translate(-2.86 -5.78)"/><path class="cls-10" d="M129.48,291.82q1.19-5.16,2.38-10.34c.08,3,1.42,6,0,8.87C131.55,291.07,130.3,291.35,129.48,291.82Z" transform="translate(-2.86 -5.78)"/><path class="cls-10" d="M313.83,323.93c1.69-1.71,3.39-3.42,5.08-5.14C318.86,323.83,318.86,323.83,313.83,323.93Z" transform="translate(-2.86 -5.78)"/><path class="cls-10" d="M330,276l-7-5C328.43,271.25,329.29,271.85,330,276Z" transform="translate(-2.86 -5.78)"/><path class="cls-10" d="M291.59,362.57c-1.07.64-1.75,1.35-2.23,1.23s-1-1-1.16-1.6c-.06-.26.84-1.09,1.21-1C290,361.26,290.55,361.86,291.59,362.57Z" transform="translate(-2.86 -5.78)"/><path class="cls-10" d="M135.84,248l1-3.58a55.28,55.28,0,0,1,.72,5.85c0,.57-1,1.17-1.52,1.76Z" transform="translate(-2.86 -5.78)"/><path class="cls-10" d="M174.75,320.49l3.59,3.38C173.74,324,173.74,324,174.75,320.49Z" transform="translate(-2.86 -5.78)"/><path class="cls-10" d="M161.33,287.88l.79,4C159.4,291.08,159.22,290.17,161.33,287.88Z" transform="translate(-2.86 -5.78)"/><path class="cls-5" d="M136.17,227.94a2.55,2.55,0,0,0,.67.12l-.48,4C134.17,230.76,134.64,229.37,136.17,227.94Z" transform="translate(-2.86 -5.78)"/><path class="cls-10" d="M160.82,278c0,2.32.07,4.65.1,7A6.29,6.29,0,0,1,160.82,278Z" transform="translate(-2.86 -5.78)"/><path class="cls-10" d="M175.86,300.38q-.36-3.67-.71-7.35Q175.5,296.71,175.86,300.38Z" transform="translate(-2.86 -5.78)"/><path class="cls-10" d="M305.16,263.62a8.64,8.64,0,0,1-1.06-2.12c0-.37.35-.8.55-1.2.42.33,1.07.59,1.19,1S305.58,262.3,305.16,263.62Z" transform="translate(-2.86 -5.78)"/><path class="cls-10" d="M172.05,317l2.47,3.29C170.56,321.5,172.59,318.26,172.05,317Z" transform="translate(-2.86 -5.78)"/><path class="cls-10" d="M302.85,130.75l-.55.95a5.13,5.13,0,0,1-1-.72c-.06-.07.31-.73.41-.71A4.8,4.8,0,0,1,302.85,130.75Z" transform="translate(-2.86 -5.78)"/><path class="cls-10" d="M133.18,273c.08-.72.17-1.44.25-2.16l1.33,1Z" transform="translate(-2.86 -5.78)"/><path class="cls-10" d="M135.13,260l.69-3.6Z" transform="translate(-2.86 -5.78)"/><path class="cls-10" d="M132.17,279c.24-1.11.47-2.21.71-3.31Z" transform="translate(-2.86 -5.78)"/><path class="cls-10" d="M327.07,303c.23-1.07.46-2.14.68-3.21C327.53,300.85,327.3,301.92,327.07,303Z" transform="translate(-2.86 -5.78)"/><path class="cls-10" d="M179.06,324.31l1.95-.18Z" transform="translate(-2.86 -5.78)"/><path class="cls-10" d="M176.24,303l-.21-2Z" transform="translate(-2.86 -5.78)"/><path class="cls-10" d="M311,324.09l2,.26Z" transform="translate(-2.86 -5.78)"/><path class="cls-10" d="M134.15,267l.6-2.63Z" transform="translate(-2.86 -5.78)"/><path class="cls-10" d="M266.55,139.49a4.69,4.69,0,0,1-.8.34c-.08,0-.22-.22-.33-.33a5.16,5.16,0,0,1,.81-.34C266.31,139.14,266.44,139.37,266.55,139.49Z" transform="translate(-2.86 -5.78)"/><path class="cls-10" d="M218.44,344.81l1.51-.41Z" transform="translate(-2.86 -5.78)"/><path class="cls-10" d="M314.76,308l-.54,1.22Z" transform="translate(-2.86 -5.78)"/><path class="cls-10" d="M128.08,296.18a3.08,3.08,0,0,1,.76-.63l-.46,1.39A5.45,5.45,0,0,1,128.08,296.18Z" transform="translate(-2.86 -5.78)"/><path class="cls-10" d="M174.31,285l-.06-1a6.68,6.68,0,0,1,.41.67S174.43,284.87,174.31,285Z" transform="translate(-2.86 -5.78)"/><path class="cls-10" d="M326.16,305l.66-1.5Z" transform="translate(-2.86 -5.78)"/><path class="cls-10" d="M162.07,276l-1,1.09Z" transform="translate(-2.86 -5.78)"/><path class="cls-10" d="M276,341.64l-1.6-.4Z" transform="translate(-2.86 -5.78)"/><path class="cls-10" d="M287.32,340.12l-1.28.53Z" transform="translate(-2.86 -5.78)"/><path class="cls-10" d="M133.89,269l.16-1C134,268.34,134,268.67,133.89,269Z" transform="translate(-2.86 -5.78)"/><path class="cls-10" d="M210,340.66l-1.49-.48Z" transform="translate(-2.86 -5.78)"/><path class="cls-10" d="M136.88,240l.06-1Z" transform="translate(-2.86 -5.78)"/><path class="cls-10" d="M206,339.66l-1.17-.58Z" transform="translate(-2.86 -5.78)"/><path class="cls-10" d="M168.16,310.79,169,312Z" transform="translate(-2.86 -5.78)"/><path class="cls-10" d="M303.88,337l1.1-.69Z" transform="translate(-2.86 -5.78)"/><path class="cls-10" d="M279,135l.53.53c-.12,0-.28,0-.34-.08A1.65,1.65,0,0,1,279,135Z" transform="translate(-2.86 -5.78)"/><path class="cls-10" d="M319.28,318,320,317Z" transform="translate(-2.86 -5.78)"/><path class="cls-10" d="M174.15,281l-.23-1Z" transform="translate(-2.86 -5.78)"/></svg>